# Blender 3.5.1
# www.blender.org
mtllib japco.mtl
o jablko_low_Baked
v 0.000000 0.141365 -0.000000
v 0.260527 0.205260 0.189097
v 0.000000 0.653821 -0.012044
v -0.099903 0.205272 0.306210
v -0.320510 0.206184 -0.000000
v 0.002350 0.653821 -0.011813
v -0.099903 0.205326 -0.306991
v 0.004609 0.653821 -0.011128
v 0.260527 0.205293 -0.189879
v 0.109516 0.518340 0.337579
v 0.006692 0.653821 -0.010015
v -0.285932 0.517388 0.207714
v -0.285932 0.517388 -0.207737
v 0.008517 0.653821 -0.008517
v 0.109516 0.518340 -0.338362
v 0.355068 0.518338 -0.000392
v 0.010015 0.653821 -0.006692
v -0.059511 0.047337 0.183096
v 0.155754 0.047337 0.113151
v 0.011128 0.653821 -0.004609
v 0.094410 0.180046 0.290946
v 0.306022 0.180046 -0.000314
v 0.011813 0.653821 -0.002350
v 0.155754 0.047337 -0.113190
v 0.012044 0.653821 0.000000
v -0.192485 0.047426 -0.000000
v -0.246680 0.180877 0.179197
v -0.059511 0.047337 -0.183135
v 0.011813 0.653821 0.002350
v -0.246680 0.180880 -0.179231
v 0.094410 0.180071 -0.291574
v 0.011128 0.653821 0.004609
v 0.354825 0.372299 0.114680
v 0.354802 0.372353 -0.116268
v 0.010015 0.653821 0.006692
v 0.000000 0.372301 0.372898
v 0.219068 0.372313 0.301525
v 0.008517 0.653821 0.008517
v -0.354825 0.372299 0.114680
v 0.006692 0.653821 0.010015
v -0.219068 0.372313 0.301525
v -0.219069 0.372304 -0.303123
v -0.354802 0.372353 -0.116268
v 0.004609 0.653821 0.011128
v 0.219069 0.372304 -0.303123
v 0.002350 0.653821 0.011813
v 0.000000 0.372325 -0.374482
v 0.272867 0.549296 0.198110
v 0.000000 0.653821 0.012044
v -0.104555 0.549297 0.320741
v -0.336031 0.548360 0.000006
v -0.002350 0.653821 0.011813
v -0.104555 0.549297 -0.321363
v 0.272867 0.549296 -0.198732
v -0.004609 0.653821 0.011128
v 0.065200 0.627743 0.194642
v 0.206694 0.627808 -0.000073
v -0.006692 0.653821 0.010015
v -0.163432 0.627983 0.120184
v -0.163432 0.627986 -0.120180
v -0.008517 0.653821 0.008517
v 0.065196 0.627827 -0.194775
v -0.010015 0.653821 0.006692
v -0.011128 0.653821 0.004609
v -0.011813 0.653821 0.002350
v -0.012044 0.653821 0.000000
v -0.011813 0.653821 -0.002350
v -0.011128 0.653821 -0.004609
v -0.010015 0.653821 -0.006692
v -0.008517 0.653821 -0.008517
v -0.006692 0.653821 -0.010015
v -0.004609 0.653821 -0.011128
v -0.002350 0.653821 -0.011813
v 0.023564 0.740406 -0.015377
v 0.026563 0.740406 -0.015082
v 0.029448 0.740406 -0.014207
v 0.032107 0.740406 -0.012786
v 0.034437 0.740406 -0.010874
v 0.036349 0.740406 -0.008543
v 0.037770 0.740406 -0.005885
v 0.038645 0.740406 -0.003000
v 0.038941 0.740406 -0.000000
v 0.038645 0.740406 0.003000
v 0.037770 0.740406 0.005885
v 0.036349 0.740406 0.008543
v 0.034437 0.740406 0.010873
v 0.032107 0.740406 0.012786
v 0.029448 0.740406 0.014207
v 0.026563 0.740406 0.015082
v 0.023564 0.740406 0.015377
v 0.020564 0.740406 0.015082
v 0.017679 0.740406 0.014207
v 0.015020 0.740406 0.012786
v 0.012690 0.740406 0.010873
v 0.010778 0.740406 0.008543
v 0.009357 0.740406 0.005885
v 0.008482 0.740406 0.003000
v 0.008186 0.740406 -0.000000
v 0.008482 0.740406 -0.003000
v 0.009357 0.740406 -0.005885
v 0.010778 0.740406 -0.008543
v 0.012690 0.740406 -0.010874
v 0.015020 0.740406 -0.012786
v 0.017679 0.740406 -0.014207
v 0.020564 0.740406 -0.015082
v 0.002434 0.567250 -0.007595
v 0.002971 0.567381 -0.007433
v 0.005580 0.567804 -0.005689
v 0.004361 0.567649 -0.006689
v 0.007324 0.567756 -0.003079
v 0.007782 0.567555 -0.001569
v 0.006581 0.567841 -0.004470
v -0.006567 0.567274 -0.004750
v -0.005797 0.567532 -0.005689
v -0.004578 0.567760 -0.006689
v -0.003187 0.567870 -0.007433
v 0.001461 0.567478 -0.007890
v 0.000000 0.567726 -0.008045
v -0.001678 0.567859 -0.007890
v -0.008153 0.567903 -0.000000
v -0.007998 0.567842 0.001569
v -0.007998 0.567842 -0.001569
v -0.006797 0.567365 0.004470
v -0.006567 0.567274 0.004750
v -0.007541 0.567660 0.003079
v -0.006797 0.567365 -0.004470
v -0.007541 0.567660 -0.003079
v -0.005797 0.567533 0.005689
v -0.003187 0.567871 0.007433
v -0.004578 0.567761 0.006689
v 0.000000 0.567728 0.008045
v -0.001678 0.567860 0.007890
v 0.002436 0.567251 0.007595
v 0.001461 0.567480 0.007890
v 0.002971 0.567383 0.007433
v 0.005580 0.567806 0.005689
v 0.004361 0.567651 0.006689
v 0.006581 0.567842 0.004470
v 0.007937 0.567246 -0.000000
v 0.007324 0.567758 0.003079
v 0.007782 0.567557 0.001569
vn -0.0001 -1.0000 -0.0000
vn 0.2856 -0.9356 0.2076
vn -0.1111 -0.9354 0.3357
vn 0.7178 -0.4613 0.5215
vn 0.8533 -0.5214 0.0001
vn -0.3570 -0.9341 -0.0000
vn -0.1113 -0.9358 -0.3346
vn 0.2853 -0.9359 -0.2068
vn 0.9469 -0.0715 0.3134
vn -0.2772 -0.4620 0.8424
vn 0.2639 -0.5209 0.8118
vn -0.0056 -0.0715 0.9974
vn -0.8862 -0.4634 0.0004
vn -0.6925 -0.5207 0.4993
vn -0.9506 -0.0706 0.3023
vn -0.2775 -0.4652 -0.8406
vn -0.6923 -0.5225 -0.4976
vn -0.5842 -0.0698 -0.8086
vn 0.7171 -0.4631 -0.5209
vn 0.2634 -0.5236 -0.8103
vn 0.5908 -0.0713 -0.8037
vn 0.5911 -0.0715 0.8034
vn -0.5839 -0.0706 0.8087
vn -0.9502 -0.0704 -0.3035
vn -0.0055 -0.0711 -0.9975
vn 0.9467 -0.0712 -0.3141
vn 0.2739 0.4621 0.8434
vn 0.6596 0.5785 0.4798
vn 0.0791 0.9676 0.2396
vn -0.7178 0.4649 0.5183
vn -0.2550 0.5806 0.7732
vn -0.2035 0.9681 0.1463
vn -0.7176 0.4676 -0.5162
vn -0.8127 0.5827 0.0003
vn -0.2036 0.9681 -0.1458
vn 0.2735 0.4651 -0.8419
vn -0.2552 0.5831 -0.7713
vn 0.0789 0.9679 -0.2386
vn 0.8874 0.4610 0.0002
vn 0.6590 0.5800 -0.4789
vn 0.2551 0.9669 0.0003
vn 0.5367 0.8438 0.0001
vn 0.1622 0.8278 -0.5371
vn 0.0993 0.7376 -0.6679
vn 0.2693 0.7537 -0.5995
vn 0.4200 0.7634 -0.4907
vn 0.5418 0.7656 -0.3468
vn 0.6247 0.7602 -0.1783
vn 0.6638 0.7479 0.0016
vn -0.4243 0.8294 -0.3634
vn -0.5613 0.7464 -0.3575
vn -0.4299 0.7603 -0.4870
vn -0.2682 0.7671 -0.5828
vn -0.0857 0.7662 -0.6369
vn 0.1025 0.7535 -0.6494
vn 0.2815 0.7449 -0.6049
vn -0.4445 0.7352 -0.5117
vn -0.4242 0.8294 0.3634
vn -0.4445 0.7352 0.5117
vn -0.5495 0.7532 0.3615
vn -0.6162 0.7648 0.1879
vn -0.6394 0.7689 -0.0000
vn -0.6162 0.7648 -0.1879
vn -0.5495 0.7532 -0.3615
vn 0.1621 0.8277 0.5372
vn 0.2815 0.7448 0.6050
vn 0.1025 0.7534 0.6495
vn -0.0856 0.7661 0.6369
vn -0.2682 0.7671 0.5828
vn -0.4299 0.7602 0.4871
vn -0.5613 0.7464 0.3576
vn 0.0991 0.7375 0.6680
vn 0.6639 0.7478 -0.0013
vn 0.6247 0.7602 0.1786
vn 0.5416 0.7656 0.3470
vn 0.4199 0.7633 0.4909
vn 0.2692 0.7536 0.5996
vn 0.1863 -0.0668 -0.9802
vn -0.0081 -0.0402 -0.9992
vn 0.3744 -0.0925 -0.9226
vn 0.5471 -0.1160 -0.8290
vn 0.6968 -0.1364 -0.7042
vn 0.8191 -0.1529 -0.5529
vn 0.9097 -0.1650 -0.3811
vn 0.9655 -0.1724 -0.1952
vn 0.9846 -0.1749 -0.0000
vn 0.9655 -0.1724 0.1952
vn 0.9097 -0.1650 0.3811
vn 0.8191 -0.1529 0.5529
vn 0.6968 -0.1364 0.7042
vn 0.5472 -0.1160 0.8290
vn 0.3744 -0.0925 0.9226
vn 0.1863 -0.0668 0.9802
vn -0.0081 -0.0402 0.9992
vn -0.2028 -0.0136 0.9791
vn -0.3894 0.0116 0.9210
vn -0.5600 0.0346 0.8277
vn -0.7093 0.0544 0.7028
vn -0.8321 0.0703 0.5502
vn -0.9225 0.0819 0.3773
vn -0.9773 0.0889 0.1921
vn -0.9958 0.0912 -0.0000
vn -0.9773 0.0889 -0.1921
vn -0.9225 0.0819 -0.3773
vn -0.8321 0.0703 -0.5502
vn -0.7093 0.0544 -0.7028
vn -0.5600 0.0346 -0.8277
vn -0.3894 0.0116 -0.9210
vn -0.2028 -0.0136 -0.9791
vn -0.2602 0.7078 -0.6568
vn -0.1297 0.6894 -0.7127
vn 0.3075 0.6314 0.7119
vn 0.4473 0.6140 0.6503
vn 0.5727 0.5989 0.5598
vn 0.6774 0.5866 0.4440
vn 0.7561 0.5775 0.3078
vn 0.8050 0.5720 0.1575
vn 0.8215 0.5701 -0.0000
vn 0.8050 0.5720 -0.1575
vn 0.7561 0.5775 -0.3078
vn 0.6774 0.5866 -0.4440
vn 0.5727 0.5989 -0.5598
vn 0.4473 0.6140 -0.6503
vn 0.3075 0.6314 -0.7119
vn 0.1602 0.6503 -0.7426
vn 0.0123 0.6699 -0.7423
vn -0.3750 0.7244 -0.5785
vn -0.4710 0.7386 -0.4824
vn -0.5466 0.7499 -0.3727
vn -0.6008 0.7582 -0.2534
vn -0.6334 0.7632 -0.1282
vn -0.6442 0.7649 -0.0000
vn -0.6334 0.7632 0.1282
vn -0.6008 0.7582 0.2534
vn -0.5466 0.7499 0.3727
vn -0.4710 0.7386 0.4824
vn -0.3750 0.7244 0.5785
vn -0.2602 0.7078 0.6568
vn -0.1297 0.6894 0.7127
vn 0.0123 0.6699 0.7423
vn 0.1602 0.6503 0.7426
vt 0.309295 0.526893
vt 0.707134 0.782789
vt 0.727025 0.109325
vt 0.195631 0.483538
vt 0.619235 0.696962
vt 0.313874 0.590863
vt 0.524345 0.524508
vt 0.485332 0.151374
vt 0.619073 0.352939
vt 0.315185 0.590650
vt 0.799926 0.457028
vt 0.316465 0.590460
vt 0.799908 0.663601
vt 0.195613 0.696908
vt 0.311333 0.346478
vt 0.423968 0.641762
vt 0.317663 0.590299
vt 0.378444 0.126579
vt 0.678447 0.066391
vt 0.191020 0.006393
vt 0.969373 0.352939
vt 0.639717 0.295715
vt 0.367861 0.591301
vt 0.318733 0.590175
vt 0.006393 0.150935
vt 0.979384 0.570592
vt 0.080878 0.362009
vt 0.011644 0.590223
vt 0.368882 0.591058
vt 0.374961 0.526893
vt 0.766791 0.679702
vt 0.637677 0.524777
vt 0.323005 0.420238
vt 0.296508 0.526296
vt 0.736287 0.212548
vt 0.694347 0.627775
vt 0.370049 0.590864
vt 0.565383 0.625868
vt 0.202941 0.590180
vt 0.371317 0.590728
vt 0.707134 0.608912
vt 0.296508 0.653731
vt 0.828005 0.172993
vt 0.372639 0.590655
vt 0.785541 0.782789
vt 0.736254 0.006393
vt 0.402789 0.146099
vt 0.694347 0.421620
vt 0.491115 0.055235
vt 0.565482 0.423784
vt 0.828005 0.045558
vt 0.707134 0.485537
vt 0.391231 0.256183
vt 0.373962 0.590647
vt 0.779778 0.379222
vt 0.457702 0.253084
vt 0.787486 0.566984
vt 0.375236 0.590705
vt 0.091267 0.525436
vt 0.091241 0.655464
vt 0.376413 0.590826
vt 0.378444 0.327019
vt 0.448992 0.589462
vt 0.276670 0.407452
vt 0.110451 0.420238
vt 0.506737 0.694245
vt 0.377447 0.591006
vt 0.586560 0.100338
vt 0.506948 0.354440
vt 0.371974 0.684048
vt 0.378298 0.591238
vt 0.609666 0.006393
vt 0.449086 0.459742
vt 0.892161 0.388598
vt 0.553293 0.340152
vt 0.565061 0.227825
vt 0.370905 0.684526
vt 0.110456 0.760667
vt 0.897368 0.634774
vt 0.369708 0.684817
vt 0.897386 0.509212
vt 0.193060 0.377084
vt 0.006393 0.478463
vt 0.368429 0.684910
vt 0.714239 0.019083
vt 0.391231 0.524213
vt 0.368248 0.238410
vt 0.297174 0.038951
vt 0.674135 0.180372
vt 0.367117 0.684802
vt 0.078574 0.052656
vt 0.993607 0.450603
vt 0.014031 0.262281
vt 0.006393 0.701893
vt 0.993607 0.666915
vt 0.365824 0.684495
vt 0.248641 0.269056
vt 0.115854 0.278005
vt 0.364598 0.684003
vt 0.338610 0.589356
vt 0.287635 0.141987
vt 0.714239 0.265392
vt 0.179198 0.072452
vt 0.363487 0.683345
vt 0.339339 0.589452
vt 0.072953 0.156387
vt 0.340271 0.589531
vt 0.341370 0.589589
vt 0.342594 0.589625
vt 0.343896 0.589637
vt 0.345225 0.589625
vt 0.346531 0.589589
vt 0.347763 0.589531
vt 0.309295 0.591771
vt 0.348874 0.589452
vt 0.349822 0.589356
vt 0.310247 0.591554
vt 0.311356 0.591324
vt 0.312581 0.591091
vt 0.309608 0.663371
vt 0.318881 0.540558
vt 0.310223 0.664938
vt 0.320555 0.540286
vt 0.311115 0.666346
vt 0.322188 0.540043
vt 0.312251 0.667544
vt 0.323718 0.539838
vt 0.313587 0.668483
vt 0.364973 0.540514
vt 0.325085 0.539679
vt 0.315071 0.669129
vt 0.366276 0.540204
vt 0.316647 0.669456
vt 0.367766 0.539957
vt 0.318254 0.669452
vt 0.369386 0.539783
vt 0.319829 0.669117
vt 0.371073 0.539690
vt 0.321313 0.668463
vt 0.372762 0.539679
vt 0.322649 0.667517
vt 0.374389 0.539753
vt 0.323785 0.666314
vt 0.375892 0.539908
vt 0.324678 0.664901
vt 0.377211 0.540138
vt 0.325292 0.663331
vt 0.378298 0.716218
vt 0.378298 0.540434
vt 0.325606 0.661666
vt 0.376932 0.716828
vt 0.325606 0.659969
vt 0.375404 0.717200
vt 0.325292 0.658305
vt 0.373771 0.717318
vt 0.324678 0.656738
vt 0.372097 0.717180
vt 0.323785 0.655330
vt 0.370445 0.716789
vt 0.322649 0.654132
vt 0.368880 0.716161
vt 0.337871 0.539679
vt 0.321313 0.653193
vt 0.338803 0.539802
vt 0.319829 0.652547
vt 0.339993 0.539902
vt 0.318253 0.652220
vt 0.341396 0.539977
vt 0.316647 0.652224
vt 0.342959 0.540023
vt 0.315071 0.652559
vt 0.344620 0.540038
vt 0.313587 0.653213
vt 0.346317 0.540023
vt 0.312251 0.654159
vt 0.347985 0.539977
vt 0.311115 0.655362
vt 0.349558 0.539902
vt 0.310223 0.656775
vt 0.350977 0.539802
vt 0.309608 0.658345
vt 0.352187 0.539679
vt 0.314250 0.541439
vt 0.309295 0.660010
vt 0.315666 0.541146
vt 0.309295 0.661707
vt 0.317230 0.540848
vt 0.184130 0.190229
vt 0.323317 0.638760
vt 0.184019 0.190504
vt 0.323608 0.638641
vt 0.183929 0.192153
vt 0.325085 0.638217
vt 0.370905 0.638522
vt 0.183882 0.191323
vt 0.324384 0.638386
vt 0.184558 0.193719
vt 0.372367 0.638257
vt 0.185116 0.194396
vt 0.373218 0.638276
vt 0.184157 0.192962
vt 0.371586 0.638340
vt 0.188270 0.186895
vt 0.347367 0.637865
vt 0.187573 0.186942
vt 0.347937 0.637679
vt 0.318805 0.639434
vt 0.186709 0.187182
vt 0.319420 0.639162
vt 0.185919 0.187593
vt 0.320151 0.638948
vt 0.184281 0.189662
vt 0.322745 0.638715
vt 0.184647 0.188907
vt 0.321906 0.638709
vt 0.185235 0.188159
vt 0.320971 0.638798
vt 0.190846 0.187447
vt 0.344610 0.637595
vt 0.191512 0.187981
vt 0.343741 0.637622
vt 0.190096 0.187073
vt 0.345498 0.637622
vt 0.192492 0.189443
vt 0.342192 0.637826
vt 0.192556 0.189643
vt 0.342049 0.637865
vt 0.192068 0.188655
vt 0.342924 0.637699
vt 0.188459 0.186857
vt 0.347196 0.637826
vt 0.189290 0.186874
vt 0.346371 0.637699
vt 0.192705 0.190233
vt 0.372639 0.651350
vt 0.341568 0.637679
vt 0.192625 0.191894
vt 0.374170 0.652240
vt 0.192744 0.191053
vt 0.373361 0.651872
vt 0.191905 0.193562
vt 0.375982 0.652466
vt 0.192354 0.192724
vt 0.375035 0.652440
vt 0.190982 0.194623
vt 0.377336 0.652108
vt 0.191399 0.194227
vt 0.376799 0.652315
vt 0.190725 0.194804
vt 0.377608 0.652086
vt 0.189061 0.195444
vt 0.377308 0.638324
vt 0.189917 0.195193
vt 0.377879 0.638564
vt 0.378298 0.651862
vt 0.188190 0.195548
vt 0.376617 0.638184
vt 0.185810 0.194965
vt 0.374106 0.638395
vt 0.187336 0.195500
vt 0.375832 0.638149
vt 0.186532 0.195304
vt 0.374984 0.638220
s 1
usemtl jablko_low_Baked
f 1/1/1 19/33/2 18/30/3
f 2/4/4 19/34/2 22/39/5
f 1/2/1 18/31/3 26/45/6
f 1/3/1 26/46/6 28/51/7
f 1/3/1 28/51/7 24/43/8
f 2/4/4 22/39/5 33/59/9
f 4/7/10 21/38/11 36/63/12
f 5/8/13 27/49/14 39/68/15
f 7/11/16 30/55/17 42/74/18
f 9/13/19 31/57/20 45/79/21
f 2/4/4 33/59/9 37/65/22
f 4/7/10 36/63/12 41/73/23
f 5/8/13 39/68/15 43/76/24
f 7/11/16 42/74/18 47/81/25
f 9/14/19 45/78/21 34/60/26
f 10/15/27 48/82/28 56/97/29
f 12/18/30 50/87/31 59/101/32
f 13/22/33 51/89/34 60/102/35
f 15/25/36 53/91/37 62/106/38
f 16/27/39 54/93/40 57/98/41
f 139/258/42 57/98/41 62/106/38 106/188/43 107/190/44 109/195/45 108/192/46 112/201/47 110/197/48 111/199/49
f 57/98/41 54/93/40 62/106/38
f 54/93/40 15/25/36 62/106/38
f 106/188/43 62/106/38 60/103/35 113/203/50 114/205/51 115/208/52 116/210/53 119/216/54 118/214/55 117/212/56
f 62/106/38 53/91/37 60/103/35
f 53/91/37 13/20/33 60/103/35
f 126/230/57 113/203/50 60/103/35 59/101/32 124/226/58 123/224/59 125/228/60 121/220/61 120/218/62 122/222/63 127/232/64
f 60/103/35 51/88/34 59/101/32
f 51/88/34 12/18/30 59/101/32
f 124/226/58 59/101/32 56/97/29 133/245/65 134/247/66 131/241/67 132/243/68 129/237/69 130/239/70 128/234/71
f 59/101/32 50/87/31 56/97/29
f 50/87/31 10/15/27 56/97/29
f 135/249/72 133/245/65 56/97/29 57/98/41 139/258/42 141/262/73 140/260/74 138/256/75 136/251/76 137/253/77
f 56/97/29 48/82/28 57/98/41
f 48/82/28 16/27/39 57/98/41
f 34/60/26 54/94/40 16/28/39
f 34/60/26 45/78/21 54/94/40
f 45/79/21 15/26/36 54/95/40
f 47/81/25 53/92/37 15/26/36
f 47/81/25 42/74/18 53/92/37
f 42/74/18 13/21/33 53/92/37
f 43/76/24 51/89/34 13/22/33
f 43/76/24 39/68/15 51/89/34
f 39/68/15 12/19/30 51/89/34
f 41/72/23 50/85/31 12/19/30
f 41/73/23 36/63/12 50/86/31
f 36/62/12 10/15/27 50/87/31
f 37/64/22 48/82/28 10/15/27
f 37/65/22 33/59/9 48/83/28
f 33/59/9 16/28/39 48/83/28
f 45/79/21 47/81/25 15/26/36
f 45/79/21 31/57/20 47/81/25
f 31/57/20 7/11/16 47/81/25
f 42/75/18 43/76/24 13/22/33
f 42/75/18 30/56/17 43/76/24
f 30/56/17 5/8/13 43/76/24
f 39/68/15 41/72/23 12/19/30
f 39/69/15 27/50/14 41/73/23
f 27/50/14 4/7/10 41/73/23
f 36/63/12 37/66/22 10/16/27
f 36/63/12 21/38/11 37/66/22
f 21/38/11 2/5/4 37/66/22
f 33/59/9 34/60/26 16/28/39
f 33/59/9 22/39/5 34/60/26
f 22/39/5 9/14/19 34/60/26
f 24/41/8 31/57/20 9/13/19
f 24/41/8 28/52/7 31/57/20
f 28/52/7 7/11/16 31/57/20
f 28/52/7 30/55/17 7/11/16
f 28/53/7 26/47/6 30/56/17
f 26/47/6 5/8/13 30/56/17
f 26/48/6 27/50/14 5/9/13
f 26/48/6 18/32/3 27/50/14
f 18/32/3 4/7/10 27/50/14
f 22/39/5 24/42/8 9/14/19
f 22/39/5 19/34/2 24/42/8
f 19/35/2 1/3/1 24/43/8
f 18/32/3 21/38/11 4/7/10
f 18/32/3 19/36/2 21/38/11
f 19/36/2 2/5/4 21/38/11
f 6/10/78 117/213/56 118/215/55 3/6/79
f 8/12/80 107/191/44 106/189/43 117/213/56 6/10/78
f 107/191/44 8/12/80 11/17/81 109/196/45
f 109/196/45 11/17/81 14/24/82 108/193/46
f 108/194/46 14/23/82 17/29/83 112/202/47
f 112/202/47 17/29/83 20/37/84 110/198/48
f 110/198/48 20/37/84 23/40/85 111/200/49
f 139/259/42 111/200/49 23/40/85 25/44/86
f 139/259/42 25/44/86 29/54/87 141/263/73
f 141/263/73 29/54/87 32/58/88 140/261/74
f 140/261/74 32/58/88 35/61/89 138/257/75
f 138/257/75 35/61/89 38/67/90 136/252/76
f 136/252/76 38/67/90 40/71/91 137/254/77
f 137/255/77 40/70/91 44/77/92 135/250/72
f 135/250/72 44/77/92 46/80/93 134/248/66 133/246/65
f 134/248/66 46/80/93 49/84/94 131/242/67
f 131/242/67 49/84/94 52/90/95 132/244/68
f 132/244/68 52/90/95 55/96/96 129/238/69
f 129/238/69 55/96/96 58/99/97 130/240/70
f 130/240/70 58/99/97 61/104/98 128/235/71
f 63/107/99 123/225/59 124/227/58 128/236/71 61/105/98
f 123/225/59 63/107/99 64/108/100 125/229/60
f 125/229/60 64/108/100 65/109/101 121/221/61
f 121/221/61 65/109/101 66/110/102 120/219/62
f 67/111/103 122/223/63 120/219/62 66/110/102
f 68/112/104 127/233/64 122/223/63 67/111/103
f 69/113/105 126/231/57 127/233/64 68/112/104
f 69/113/105 70/115/106 114/206/51 113/204/50 126/231/57
f 114/207/51 70/114/106 71/117/107 115/209/52
f 115/209/52 71/117/107 72/118/108 116/211/53
f 73/119/109 72/118/108 104/185/110 105/187/111
f 116/211/53 72/118/108 73/119/109 119/217/54
f 3/6/79 118/215/55 119/217/54 73/119/109
f 88/150/112 87/147/113 86/145/114 85/143/115 84/141/116 83/139/117 82/137/118 81/135/119 80/133/120 79/131/121 78/128/122 77/126/123 76/124/124 75/122/125 74/120/126 105/186/111 104/184/110 103/181/127 102/179/128 101/177/129 100/175/130 99/173/131 98/171/132 97/169/133 96/167/134 95/165/135 94/163/136 93/160/137 92/158/138 91/156/139 90/154/140 89/152/141
f 29/54/87 25/44/86 82/138/118 83/140/117
f 55/96/96 52/90/95 91/157/139 92/159/138
f 69/113/105 68/112/104 100/176/130 101/178/129
f 17/29/83 14/23/82 78/129/122 79/132/121
f 44/77/92 40/70/91 87/148/113 88/151/112
f 65/109/101 64/108/100 96/168/134 97/170/133
f 6/10/78 3/6/79 74/121/126 75/123/125
f 3/6/79 73/119/109 105/187/111 74/121/126
f 32/58/88 29/54/87 83/140/117 84/142/116
f 58/99/97 55/96/96 92/159/138 93/161/137
f 70/115/106 69/113/105 101/178/129 102/180/128
f 20/37/84 17/29/83 79/132/121 80/134/120
f 46/80/93 44/77/92 88/151/112 89/153/141
f 66/110/102 65/109/101 97/170/133 98/172/132
f 8/12/80 6/10/78 75/123/125 76/125/124
f 35/61/89 32/58/88 84/142/116 85/144/115
f 61/105/98 58/100/97 93/162/137 94/164/136
f 71/116/107 70/115/106 102/180/128 103/182/127
f 23/40/85 20/37/84 80/134/120 81/136/119
f 49/84/94 46/80/93 89/153/141 90/155/140
f 67/111/103 66/110/102 98/172/132 99/174/131
f 11/17/81 8/12/80 76/125/124 77/127/123
f 38/67/90 35/61/89 85/144/115 86/146/114
f 63/107/99 61/105/98 94/164/136 95/166/135
f 72/118/108 71/117/107 103/183/127 104/185/110
f 25/44/86 23/40/85 81/136/119 82/138/118
f 52/90/95 49/84/94 90/155/140 91/157/139
f 68/112/104 67/111/103 99/174/131 100/176/130
f 14/24/82 11/17/81 77/127/123 78/130/122
f 40/71/91 38/67/90 86/146/114 87/149/113
f 64/108/100 63/107/99 95/166/135 96/168/134
