# 3ds Max Wavefront OBJ Exporter v0.99 - (c)2007 guruware
# File Created: 23.04.2023 21:55:03

mtllib tree1.mtl

#
# object Pyramid007
#

v  0.0000 6.6089 0.0582
v  -1.6000 5.3032 1.6582
v  1.6000 5.3032 1.6582
v  1.6000 5.3032 -1.5418
v  -1.6000 5.3032 -1.5418
v  0.0210 5.9746 0.0524
v  -2.2594 4.7049 -0.0603
v  -0.1184 4.6811 2.3178
v  2.2594 4.6333 0.1767
v  0.1184 4.6571 -2.2014
v  0.0000 5.5249 0.0582
v  -0.7153 4.2192 2.2049
v  2.1467 4.2192 0.7735
v  0.7153 4.2192 -2.0885
v  -2.1467 4.2192 -0.6571
v  0.0241 5.1592 0.0455
v  -2.7982 3.8895 0.7096
v  0.4578 3.8657 2.2761
v  2.7982 3.8179 -0.5932
v  -0.4578 3.8417 -2.1597
v  -0.0265 4.6789 0.0509
v  2.5151 3.4092 1.5624
v  1.1442 3.3854 -2.0586
v  -2.5151 3.3376 -1.4460
v  -1.1442 3.3614 2.1750
v  -0.3875 0.0000 0.4098
v  -0.3875 0.0000 -0.3902
v  0.4125 0.0000 -0.3902
v  0.4125 0.0000 0.4098
v  -0.3875 4.8000 0.4098
v  0.4125 4.8000 0.4098
v  0.4125 4.8000 -0.3902
v  -0.3875 4.8000 -0.3902
v  0.4125 0.9600 0.4098
v  -0.3875 0.9600 0.4098
v  0.3236 1.9200 0.3209
v  -0.1724 1.9200 0.2882
v  0.4049 2.8800 0.3587
v  -0.3034 2.8800 0.3257
v  0.4125 3.8400 0.4098
v  -0.3875 3.8400 0.4098
v  0.4125 0.9600 -0.3902
v  0.3236 1.9200 -0.1371
v  0.3284 2.8800 -0.2731
v  0.4125 3.8400 -0.3902
v  -0.3875 0.9600 -0.3902
v  -0.2985 1.9200 -0.3013
v  -0.3034 2.8800 -0.3061
v  -0.3875 3.8400 -0.3902
# 49 vertices

vn 0.0000 1.0000 -0.0000
vn -0.3534 0.8661 0.3534
vn 0.3534 0.8661 0.3534
vn 0.3534 0.8661 -0.3534
vn -0.3534 0.8661 -0.3534
vn 0.0161 0.9999 -0.0045
vn -0.4851 0.8739 -0.0301
vn -0.0122 0.8687 0.4952
vn 0.5130 0.8581 0.0223
vn 0.0401 0.8634 -0.5030
vn -0.1580 0.8661 0.4742
vn 0.4742 0.8661 0.1580
vn 0.1580 0.8661 -0.4742
vn -0.4742 0.8661 -0.1580
vn 0.0130 0.9999 -0.0082
vn -0.3924 0.9160 0.0837
vn 0.1159 0.8689 0.4813
vn 0.4148 0.9046 -0.0982
vn -0.0978 0.8636 -0.4946
vn -0.0151 0.9999 -0.0025
vn 0.3387 0.9189 0.2024
vn 0.2238 0.8813 -0.4162
vn -0.3651 0.9078 -0.2064
vn -0.2464 0.8763 0.4139
vn -0.5774 -0.5774 0.5774
vn -0.5774 -0.5774 -0.5774
vn 0.5774 -0.5774 -0.5774
vn 0.5774 -0.5774 0.5774
vn -0.5774 0.5774 0.5774
vn 0.5774 0.5774 0.5774
vn 0.5774 0.5774 -0.5774
vn -0.5774 0.5774 -0.5774
vn 0.7057 0.0633 0.7057
vn -0.7108 0.1159 0.6938
vn 0.6762 0.0234 0.7363
vn -0.6263 0.0638 0.7769
vn 0.7414 -0.0644 0.6680
vn -0.7268 -0.1245 0.6755
vn 0.7020 -0.0216 0.7118
vn -0.7058 -0.0600 0.7058
vn 0.6871 0.1190 -0.7167
vn 0.8225 0.0718 -0.5643
vn 0.6678 -0.1294 -0.7330
vn 0.7020 -0.0713 -0.7086
vn -0.7057 0.0633 -0.7057
vn -0.6881 0.0639 -0.7228
vn -0.6863 -0.0669 -0.7242
vn -0.7058 -0.0600 -0.7058
# 48 vertex normals

vt 0.5000 1.0000 0.0000
vt 0.0000 0.0000 0.0000
vt 1.0000 0.0000 0.0000
vt 1.0000 1.0000 0.0000
vt 0.0000 1.0000 0.0000
vt 1.0000 0.2000 0.0000
vt 0.0000 0.2000 0.0000
vt 1.0000 0.4000 0.0000
vt 0.0000 0.4000 0.0000
vt 1.0000 0.6000 0.0000
vt 0.0000 0.6000 0.0000
vt 1.0000 0.8000 0.0000
vt 0.0000 0.8000 0.0000
# 13 texture coords

o Pyramid007
g Pyramid007
usemtl wire_006135006
s 4
f 1/1/1 2/2/2 3/3/3 
s 2
f 1/1/1 3/2/3 4/3/4 
s 16
f 1/1/1 4/2/4 5/3/5 
s 32
f 1/1/1 5/2/5 2/3/2 
s 4
f 6/1/6 7/2/7 8/3/8 
s 2
f 6/1/6 8/2/8 9/3/9 
s 16
f 6/1/6 9/2/9 10/3/10 
s 32
f 6/1/6 10/2/10 7/3/7 
s 4
f 11/1/1 12/2/11 13/3/12 
s 2
f 11/1/1 13/2/12 14/3/13 
s 16
f 11/1/1 14/2/13 15/3/14 
s 32
f 11/1/1 15/2/14 12/3/11 
s 4
f 16/1/15 17/2/16 18/3/17 
s 2
f 16/1/15 18/2/17 19/3/18 
s 16
f 16/1/15 19/2/18 20/3/19 
s 32
f 16/1/15 20/2/19 17/3/16 
s 4
f 21/1/20 22/2/21 23/3/22 
s 2
f 21/1/20 23/2/22 24/3/23 
s 16
f 21/1/20 24/2/23 25/3/24 
s 32
f 21/1/20 25/2/24 22/3/21 
s 2
f 26/3/25 27/4/26 28/5/27 29/2/28 
s 4
f 30/2/29 31/3/30 32/4/31 33/5/32 
s 8
f 26/2/25 29/3/28 34/6/33 35/7/34 
f 35/7/34 34/6/33 36/8/35 37/9/36 
f 37/9/36 36/8/35 38/10/37 39/11/38 
f 39/11/38 38/10/37 40/12/39 41/13/40 
f 41/13/40 40/12/39 31/4/30 30/5/29 
s 16
f 29/2/28 28/3/27 42/6/41 34/7/33 
f 34/7/33 42/6/41 43/8/42 36/9/35 
f 36/9/35 43/8/42 44/10/43 38/11/37 
f 38/11/37 44/10/43 45/12/44 40/13/39 
f 40/13/39 45/12/44 32/4/31 31/5/30 
s 32
f 28/2/27 27/3/26 46/6/45 42/7/41 
f 42/7/41 46/6/45 47/8/46 43/9/42 
f 43/9/42 47/8/46 48/10/47 44/11/43 
f 44/11/43 48/10/47 49/12/48 45/13/44 
f 45/13/44 49/12/48 33/4/32 32/5/31 
s 64
f 27/2/26 26/3/25 35/6/34 46/7/45 
f 46/7/45 35/6/34 37/8/36 47/9/46 
f 47/9/46 37/8/36 39/10/38 48/11/47 
f 48/11/47 39/10/38 41/12/40 49/13/48 
f 49/13/48 41/12/40 30/4/29 33/5/32 
# 22 polygons - 20 triangles

