# Blender 3.5.1
# www.blender.org
mtllib kamor big.mtl
o Icosphere.046
v 0.277537 0.201271 -0.177125
v 0.373688 0.121940 0.321068
v -0.231894 0.073968 0.352513
v -0.298917 0.043039 -0.145528
v 0.029104 0.385713 0.548689
v 0.137272 0.410883 -0.300969
v -0.105263 0.360209 -0.385941
v -0.312643 0.053087 0.229694
v 0.347122 0.060267 0.290162
v 0.188909 0.215839 -0.261281
v 0.389781 0.105179 0.206945
v -0.015548 0.307690 0.553094
v -0.387995 0.119371 0.181405
v -0.250751 0.203143 -0.327802
v 0.222086 0.299627 -0.251193
v -0.073402 0.477818 -0.350268
v 0.308342 0.147149 0.409729
v 0.181505 -0.016680 0.161616
v -0.345628 0.037812 -0.015508
v 0.263628 0.130330 -0.140392
v -0.066897 0.217020 -0.349043
v 0.335376 0.156670 -0.063399
v 0.052728 0.488355 0.503631
v 0.340807 0.217785 0.392107
v -0.136411 0.252317 0.515566
v -0.407620 0.110029 0.035072
v 0.042270 0.503537 -0.310052
v -0.146365 0.269028 -0.381027
v 0.021497 0.390842 -0.366858
v 0.109494 0.317515 -0.336601
v -0.382529 0.200845 -0.171922
v -0.322357 0.127616 -0.229769
v -0.308821 0.235338 0.376643
v -0.233337 0.168804 0.431921
v 0.160748 0.368624 0.516678
v 0.118844 0.302146 0.539403
v -0.183942 0.014975 -0.161968
v 0.159811 0.023449 0.302940
v -0.113446 0.046103 0.359420
v -0.020875 -0.038638 0.184725
v -0.347163 0.096209 0.247295
v -0.278388 0.143392 -0.279098
v 0.177592 0.277156 -0.291993
v 0.385782 0.180836 0.202779
v -0.084539 0.303336 0.543604
v -0.414366 0.138709 0.108310
v -0.209051 0.255932 -0.364046
v 0.253278 0.331775 -0.196131
v 0.353037 0.256760 0.333504
v -0.265482 0.613346 0.325517
v -0.384981 0.561393 -0.027802
v -0.145893 0.644334 -0.236077
v 0.115304 0.690921 -0.003202
v 0.054487 0.667532 0.332007
v -0.073121 0.802045 0.136764
v 0.042313 0.737730 0.203193
v 0.136992 0.685989 0.131831
v -0.091218 0.794565 0.003815
v 0.002109 0.734853 -0.068142
v -0.024023 0.665382 -0.191793
v -0.206227 0.763652 -0.031254
v -0.236663 0.682414 -0.148137
v -0.329600 0.584142 -0.150272
v -0.259329 0.751746 0.080717
v -0.346120 0.647160 0.088567
v -0.352623 0.576138 0.212329
v -0.177111 0.776829 0.184653
v -0.175025 0.709659 0.307791
v -0.057606 0.666710 0.387850
v 0.176513 0.518785 0.396127
v 0.272265 0.445491 0.312659
v 0.242113 0.546782 0.176548
v 0.203469 0.564944 -0.047667
v 0.185498 0.492647 -0.179624
v 0.069053 0.551662 -0.258190
v -0.139330 0.508372 -0.332316
v -0.233250 0.381501 -0.334288
v -0.331889 0.419657 -0.238746
v -0.427141 0.383457 -0.029735
v -0.429429 0.292633 0.104162
v -0.392256 0.399719 0.229783
v -0.242701 0.460289 0.423090
v -0.117570 0.425667 0.509204
v -0.022105 0.534687 0.490182
v 0.282799 0.476150 0.064422
v 0.346729 0.298118 0.067451
v 0.332960 0.228693 -0.063431
v -0.000601 0.455153 -0.351077
v 0.038694 0.338407 -0.370119
v -0.078876 0.268448 -0.380662
v -0.392810 0.284408 -0.163524
v -0.365140 0.132681 -0.172826
v -0.384709 0.078592 -0.032212
v -0.321882 0.317487 0.364156
v -0.290837 0.167435 0.380128
v -0.176818 0.189623 0.474533
v 0.131952 0.439347 0.499303
v 0.180250 0.312003 0.521370
v 0.306873 0.204315 0.437000
v 0.371057 0.059316 0.217582
v 0.313004 0.114846 -0.069865
v -0.186618 0.070546 -0.235419
v -0.181668 -0.020212 -0.078536
v -0.295245 0.002889 0.017633
v 0.307892 0.096037 0.363208
v 0.137227 -0.014814 0.231403
v -0.271407 0.013855 0.194711
v -0.133313 0.001607 0.279920
vn -0.0583 -0.5783 -0.8138
vn 0.7000 0.3107 0.6430
vn 0.8859 0.3559 -0.2976
vn 0.3039 -0.4092 -0.8603
vn -0.9662 0.2302 0.1157
vn -0.6813 0.6445 0.3470
vn -0.8042 0.2276 0.5491
vn -0.9193 -0.0812 0.3852
vn 0.1013 -0.0018 0.9949
vn 0.7401 0.3973 0.5425
vn -0.9474 -0.2334 -0.2190
vn 0.6786 -0.1831 -0.7114
vn 0.0832 -0.5638 0.8217
vn 0.6123 0.1323 -0.7795
vn 0.9806 0.0725 -0.1823
vn -0.3820 0.4804 0.7895
vn 0.3707 0.6359 0.6769
vn 0.0869 0.0020 -0.9962
vn 0.5882 0.6605 -0.4666
vn -0.7338 0.0025 -0.6793
vn 0.9761 0.1120 0.1865
vn 0.8787 0.0763 -0.4712
vn -0.6224 -0.0916 0.7773
vn -0.3130 -0.7429 -0.5917
vn 0.8020 0.5897 -0.0950
vn 0.6858 0.6573 0.3125
vn -0.3650 -0.8959 -0.2533
vn -0.6871 -0.7135 0.1371
vn 0.1547 0.6089 -0.7780
vn -0.7566 -0.1498 -0.6364
vn -0.2538 0.9670 -0.0234
vn -0.9864 -0.1018 -0.1290
vn 0.2568 -0.9262 -0.2760
vn -0.7292 0.6402 -0.2417
vn 0.4381 0.2810 -0.8539
vn 0.1149 0.8772 0.4662
vn 0.4632 0.8829 -0.0775
vn 0.2300 -0.7294 -0.6443
vn -0.2907 0.2146 -0.9325
vn 0.0773 0.2675 -0.9605
vn -0.8606 -0.1987 0.4688
vn 0.0153 -0.6554 0.7551
vn -0.1331 0.2779 0.9513
vn -0.3220 -0.8387 0.4392
vn 0.6695 -0.4216 -0.6116
vn -0.0091 0.8488 -0.5286
vn -0.5229 0.4427 -0.7284
vn -0.5924 -0.5779 0.5613
vn 0.9276 0.3691 0.0586
vn 0.7761 -0.2082 0.5952
vn 0.8812 -0.4141 0.2282
vn 0.8705 -0.4202 -0.2561
vn -0.5971 0.0490 0.8007
vn 0.2587 0.2665 0.9285
vn -0.9034 0.2099 -0.3738
vn -0.6785 -0.6490 -0.3440
vn 0.5934 -0.5473 0.5902
vn -0.1879 -0.9785 0.0851
vn 0.6858 0.4165 -0.5968
vn 0.1101 -0.8997 0.4224
vt 0.636364 0.157461
vt 0.454546 0.157461
vt 0.181819 0.157461
vt 0.909091 0.157461
vt 0.318183 0.236191
vt 0.681819 0.236191
vt 0.772728 0.236191
vt 0.136365 0.157461
vt 0.477273 0.118096
vt 0.431819 0.118096
vt 0.681819 0.157461
vt 0.500001 0.157461
vt 0.295455 0.196826
vt 0.113637 0.196826
vt 0.840909 0.196826
vt 0.659091 0.196826
vt 0.750000 0.275556
vt 0.409092 0.157461
vt 0.386364 0.039365
vt 0.954546 0.157461
vt 0.613637 0.118096
vt 0.659091 0.118096
vt 0.772728 0.157461
vt 0.590910 0.157461
vt 0.340910 0.275556
vt 0.431819 0.196826
vt 0.250001 0.196826
vt 0.977273 0.196826
vt 0.068183 0.196826
vt 0.704546 0.275556
vt 0.795455 0.196826
vt 0.727273 0.236191
vt 0.704546 0.196826
vt 0.909091 0.236191
vt 0.886364 0.196826
vt 0.181819 0.236191
vt 0.204546 0.196826
vt 0.363637 0.236191
vt 0.340910 0.196826
vt 0.886364 0.118096
vt 0.363637 0.078731
vt 0.204546 0.118096
vt 0.181819 0.052487
vt 0.136365 0.183704
vt 0.863636 0.183704
vt 0.681818 0.183704
vt 0.500001 0.183704
vt 0.272728 0.209948
vt 0.090910 0.209948
vt 0.818182 0.209948
vt 0.636364 0.209948
vt 0.454546 0.209948
vt 0.227274 0.341165
vt 0.045455 0.341165
vt 0.772727 0.341165
vt 0.590909 0.341165
vt 0.409092 0.341165
vt 0.454546 0.419895
vt 0.454546 0.367408
vt 0.500000 0.341165
vt 0.636364 0.419895
vt 0.636364 0.367408
vt 0.681818 0.341165
vt 0.818182 0.419895
vt 0.818182 0.367408
vt 0.863636 0.341165
vt 0.090910 0.419895
vt 0.090910 0.367408
vt 0.136364 0.341165
vt 0.272728 0.419895
vt 0.272728 0.367408
vt 0.318182 0.341165
vt 0.409092 0.288678
vt 0.454546 0.262434
vt 0.500000 0.288678
vt 0.590910 0.288678
vt 0.636364 0.262434
vt 0.681819 0.288678
vt 0.772728 0.288678
vt 0.818182 0.262434
vt 0.863636 0.288678
vt 0.045455 0.288678
vt 0.090910 0.262434
vt 0.136364 0.288678
vt 0.227274 0.288678
vt 0.272728 0.262434
vt 0.318183 0.288678
vt 0.545455 0.262434
vt 0.545455 0.209948
vt 0.590909 0.183704
vt 0.727273 0.262434
vt 0.727273 0.209948
vt 0.772727 0.183704
vt 0.909091 0.262434
vt 0.909091 0.209948
vt 0.954545 0.183704
vt 0.181819 0.262434
vt 0.181819 0.209948
vt 0.227274 0.183704
vt 0.363637 0.262434
vt 0.363637 0.209948
vt 0.409092 0.183704
vt 0.500001 0.131218
vt 0.590910 0.131218
vt 0.863636 0.131218
vt 0.909091 0.104974
vt 0.954546 0.131218
vt 0.409092 0.131218
vt 0.363637 0.052487
vt 0.136365 0.131218
vt 0.181819 0.104974
s 0
usemtl Material.055
f 21/23/1 102/105/1 42/45/1 14/15/1 47/50/1 28/31/1 90/93/1
f 98/101/2 99/102/2 24/26/2 35/38/2
f 86/89/3 87/90/3 48/51/3 74/77/3 73/76/3 85/88/3
f 89/92/4 30/33/4 43/46/4 10/11/4 21/23/4 90/93/4
f 79/82/5 80/83/5 81/84/5 66/69/5 65/68/5 51/54/5
f 65/68/6 66/69/6 50/53/6 68/71/6 67/70/6 64/67/6
f 81/84/7 94/97/7 82/85/7 50/53/7 66/69/7
f 81/84/8 80/83/8 46/49/8 13/14/8 33/36/8 94/97/8
f 5/5/9 12/13/9 36/39/9
f 70/73/10 97/100/10 35/38/10 24/26/10 49/52/10 71/74/10
f 92/95/11 93/96/11 26/28/11 31/34/11
f 1/1/12 10/11/12 43/46/12 15/16/12
f 96/99/13 17/18/13 99/102/13 98/101/13 36/39/13 12/13/13 45/48/13 25/27/13
f 6/6/14 15/16/14 43/46/14 30/33/14
f 86/89/15 44/47/15 11/12/15 22/24/15 87/90/15
f 68/71/16 50/53/16 82/85/16 83/86/16 84/87/16 69/72/16
f 70/73/17 54/57/17 69/72/17 84/87/17 23/25/17 97/100/17
f 89/92/18 90/93/18 28/31/18 7/7/18 29/32/18
f 73/76/19 74/77/19 75/78/19 60/63/19 59/62/19 53/56/19
f 78/81/20 77/80/20 47/50/20 14/15/20 31/34/20 91/94/20
f 44/47/21 49/52/21 24/26/21 2/2/21 11/12/21
f 48/51/22 87/90/22 22/24/22 1/1/22 15/16/22
f 34/37/23 96/99/23 25/27/23 33/36/23 95/98/23
f 42/45/24 102/105/24 37/40/24 4/4/24 32/35/24
f 57/60/25 72/75/25 85/88/25 73/76/25 53/56/25
f 56/59/26 54/57/26 70/73/26 71/74/26 72/75/26 57/60/26
f 103/106/27 104/107/27 19/20/27 4/4/27 37/40/27
f 13/14/28 46/49/28 26/28/28 93/96/28 19/20/28 104/107/28 107/110/28 8/8/28 41/44/28
f 16/17/29 76/79/29 52/55/29 60/63/29 75/78/29 27/30/29 88/91/29
f 32/35/30 92/95/30 31/34/30 14/15/30 42/45/30
f 61/64/31 64/67/31 67/70/31 55/58/31 58/61/31
f 46/49/32 80/83/32 79/82/32 91/94/32 31/34/32 26/29/32
f 40/43/33 103/106/33 37/40/33 20/21/33 101/104/33 100/103/33 9/9/33 18/19/33 106/109/33
f 62/65/34 63/66/34 51/54/34 65/68/34 64/67/34 61/64/34
f 6/6/35 30/33/35 89/92/35 29/32/35 88/91/35 27/30/35
f 54/57/36 56/59/36 55/58/36 67/70/36 68/71/36 69/72/36
f 56/59/37 57/60/37 53/56/37 59/62/37 58/61/37 55/58/37
f 21/23/38 10/11/38 20/22/38 37/40/38 102/105/38
f 47/50/39 77/80/39 76/79/39 16/17/39 7/7/39 28/31/39
f 7/7/40 16/17/40 88/91/40 29/32/40
f 41/44/41 95/98/41 33/36/41 13/14/41
f 96/99/42 34/37/42 3/3/42 39/42/42 38/41/42 105/108/42 17/18/42
f 83/86/43 45/48/43 12/13/43 5/5/43 23/25/43 84/87/43
f 107/110/44 108/111/44 39/42/44 3/3/44 8/8/44
f 20/22/45 10/11/45 1/1/45 22/24/45 101/104/45
f 59/62/46 60/63/46 52/55/46 62/65/46 61/64/46 58/61/46
f 77/80/47 78/81/47 63/66/47 62/65/47 52/55/47 76/79/47
f 3/3/48 34/37/48 95/98/48 41/44/48 8/8/48
f 72/75/49 71/74/49 49/52/49 44/47/49 86/89/49 85/88/49
f 2/2/50 24/26/50 99/102/50 17/18/50
f 2/2/51 9/9/51 100/103/51 11/12/51
f 100/103/52 101/104/52 22/24/52 11/12/52
f 45/48/53 83/86/53 82/85/53 94/97/53 33/36/53 25/27/53
f 5/5/54 36/39/54 98/101/54 35/38/54 97/100/54 23/25/54
f 78/81/55 91/94/55 79/82/55 51/54/55 63/66/55
f 4/4/56 19/20/56 93/96/56 92/95/56 32/35/56
f 2/2/57 17/18/57 105/108/57 9/10/57
f 107/110/58 104/107/58 103/106/58 40/43/58 108/111/58
f 74/77/59 48/51/59 15/16/59 6/6/59 27/30/59 75/78/59
f 105/108/60 38/41/60 39/42/60 108/111/60 40/43/60 106/109/60 18/19/60 9/10/60
