# Blender 3.5.1
# www.blender.org
mtllib duze trawsko.mtl
o Icosphere.043
v 0.031989 -0.040637 -0.111123
v -0.168148 0.274885 0.004035
v 0.032993 0.346199 -0.022294
v 0.149816 0.231168 0.138335
v 0.020874 0.088758 0.263933
v -0.175638 0.115779 0.180931
v -0.174014 0.741702 0.324670
v 0.022498 0.714681 0.407672
v 0.015009 0.555575 0.584569
v -0.186132 0.484261 0.610897
v -0.302955 0.599292 0.450268
v -0.185129 0.871096 0.699726
v 0.051639 0.106703 -0.130090
v -0.066588 0.064786 -0.114615
v -0.065999 0.292162 -0.062403
v -0.188628 0.156726 0.057050
v -0.070990 -0.028734 -0.010639
v 0.120306 0.039090 -0.035676
v 0.120896 0.266465 0.016537
v 0.044516 -0.044617 0.038149
v 0.113773 0.115146 0.184776
v -0.077524 0.047322 0.209814
v -0.263465 0.440927 0.215363
v -0.267867 0.347407 0.319340
v -0.069447 0.566551 0.126061
v -0.187675 0.524633 0.141536
v 0.114728 0.483053 0.269264
v 0.046061 0.550668 0.174849
v 0.034536 0.305826 0.447067
v 0.110325 0.389533 0.373240
v -0.199200 0.279791 0.413755
v -0.083693 0.263909 0.462542
v -0.266913 0.715314 0.403827
v -0.075615 0.783138 0.378789
v 0.035489 0.673734 0.531553
v -0.087140 0.538297 0.651006
v -0.274035 0.563994 0.572066
v -0.197655 0.875076 0.550455
v -0.273445 0.791370 0.624279
v -0.082149 0.859194 0.599242
v -0.086551 0.765674 0.703218
v -0.204778 0.723757 0.718694
v 0.008378 -0.165869 -0.313101
v 0.291763 0.087451 -0.221497
v 0.274451 -0.038062 -0.047764
v 0.062984 0.008400 0.028422
v -0.050398 0.162626 -0.098230
v 0.090998 0.211482 -0.252686
v 0.521516 0.418289 0.176648
v 0.380121 0.369432 0.331105
v 0.179355 0.493463 0.299916
v 0.196668 0.618976 0.126183
v 0.408135 0.572514 0.049996
v 0.462741 0.746784 0.391520
v 0.124885 -0.170863 -0.218996
v 0.135061 -0.097089 -0.321113
v 0.291455 -0.021965 -0.165152
v 0.183624 0.124714 -0.285601
v 0.017054 -0.024186 -0.339445
v 0.000588 -0.143554 -0.174214
v 0.156981 -0.068430 -0.018253
v -0.066055 -0.052903 -0.248658
v -0.033959 0.049530 -0.047916
v -0.017493 0.168900 -0.213147
v 0.370033 0.336924 -0.107689
v 0.252026 0.409827 -0.126022
v 0.426501 0.172496 0.068872
v 0.436678 0.246271 -0.033246
v 0.219092 0.171088 0.204440
v 0.343391 0.143778 0.159660
v 0.034441 0.334644 0.111664
v 0.101085 0.243991 0.186108
v 0.127728 0.437136 -0.081242
v 0.044618 0.408419 0.009546
v 0.505078 0.531384 0.126334
v 0.488611 0.412015 0.291565
v 0.287494 0.456201 0.364019
v 0.179663 0.602879 0.243570
v 0.314137 0.649345 0.096671
v 0.537174 0.633817 0.327077
v 0.470531 0.724468 0.252633
v 0.454064 0.605100 0.417863
v 0.336058 0.678003 0.399531
v 0.346234 0.751777 0.297414
v 0.080192 -0.261370 0.105988
v -0.132479 -0.159939 -0.206026
v 0.169114 0.006959 -0.158742
v -0.158611 0.010562 -0.041985
v 0.011398 0.274234 -0.634375
v -0.014734 0.444735 -0.470334
v -0.316327 0.277837 -0.517618
v -0.227405 0.546167 -0.782348
v 0.101242 -0.273950 -0.041841
v -0.017810 -0.272640 0.000574
v -0.158175 -0.112801 -0.086404
v -0.033170 -0.172422 0.096994
v 0.159461 -0.174540 0.028366
v 0.153510 -0.116230 -0.197445
v 0.076389 -0.111794 0.114173
v 0.128657 0.045927 -0.041432
v -0.250879 0.044299 -0.365974
v -0.266239 0.144517 -0.269553
v -0.167807 -0.018450 -0.451780
v 0.119026 0.140279 -0.406807
v 0.060807 0.040869 -0.477017
v 0.020593 0.303246 -0.224580
v 0.103666 0.240497 -0.310386
v -0.208020 0.243927 -0.199343
v -0.275870 0.238869 -0.634929
v 0.010962 0.397597 -0.589956
v -0.300723 0.401026 -0.478915
v -0.223602 0.396590 -0.790533
v -0.306674 0.459336 -0.704726
v -0.114043 0.457218 -0.773354
v -0.129403 0.557436 -0.676934
v -0.248455 0.558746 -0.634519
v 0.164923 -0.225342 0.055268
v -0.018375 0.014601 -0.202342
v 0.039712 0.134285 -0.015305
v -0.071330 0.070229 0.175084
v -0.198048 -0.089040 0.105712
v -0.494638 0.299207 -0.311112
v -0.367921 0.458476 -0.241739
v -0.547593 0.354835 0.066314
v -0.605681 0.235151 -0.120723
v -0.730891 0.594778 -0.191296
v 0.135822 -0.156302 -0.074506
v 0.049450 -0.237428 -0.030543
v -0.163899 -0.157310 -0.000894
v 0.030214 -0.217220 0.106562
v 0.169965 -0.085953 0.035431
v 0.062226 0.055082 -0.115988
v 0.104696 -0.123604 0.147338
v 0.031100 0.087780 0.105857
v -0.108653 -0.043488 0.176989
v -0.403501 0.033243 -0.133989
v -0.422737 0.053451 0.003117
v -0.143231 0.315985 -0.139145
v -0.177375 0.245637 -0.249084
v -0.162468 0.336193 -0.002039
v -0.388593 0.123799 0.113056
v -0.597068 0.281656 -0.241884
v -0.457316 0.412924 -0.313016
v -0.402070 0.526746 -0.135133
v -0.628194 0.314354 -0.020040
v -0.670664 0.493040 -0.283366
v -0.735934 0.455389 -0.171459
v -0.596182 0.586656 -0.242590
v -0.615419 0.606864 -0.105484
v -0.701790 0.525738 -0.061522
vn -0.0885 -0.1156 -0.9893
vn -0.8352 -0.0981 -0.5412
vn 0.7286 -0.1822 -0.6603
vn 0.7039 -0.7060 -0.0779
vn -0.1298 -0.9914 -0.0155
vn -0.9171 -0.0197 -0.3982
vn 0.0247 0.5662 -0.8239
vn 0.9616 0.2196 -0.1647
vn 0.6344 -0.5214 0.5707
vn -0.5992 -0.6818 0.4196
vn -0.8003 0.2400 -0.5495
vn 0.3738 0.6313 -0.6795
vn 0.9904 0.0792 0.1131
vn 0.3147 -0.6236 0.7156
vn -0.8345 -0.4867 0.2584
vn -0.5813 0.6724 -0.4581
vn 0.6022 0.7600 -0.2444
vn 0.8352 0.0981 0.5412
vn -0.1376 -0.4154 0.8992
vn -0.9749 -0.0475 0.2177
vn -0.7286 0.1822 0.6603
vn -0.8415 -0.1188 0.5270
vn -0.6299 -0.3590 0.6887
vn 0.0885 0.1156 0.9893
vn 0.2028 -0.2197 0.9543
vn 0.5576 -0.1871 0.8087
vn 0.6019 0.5809 0.5480
vn 0.8363 0.3896 0.3858
vn 0.8547 0.5130 0.0799
vn 0.1298 0.9914 0.0155
vn 0.2562 0.9161 -0.3085
vn -0.0778 0.8548 -0.5131
vn -0.7039 0.7060 0.0779
vn -0.8102 0.5462 -0.2125
vn -0.9608 0.2522 -0.1155
vn -0.9616 -0.2196 0.1647
vn -0.8523 -0.4073 0.3282
vn -0.6817 -0.4847 0.5479
vn -0.0247 -0.5662 0.8239
vn 0.2943 -0.5386 0.7895
vn 0.5498 -0.3695 0.7492
vn 0.9171 0.0197 0.3982
vn 0.9712 0.1551 0.1806
vn 0.9331 0.3591 0.0208
vn 0.5992 0.6818 -0.4196
vn 0.3533 0.7146 -0.6038
vn 0.0376 0.7592 -0.6497
vn -0.6344 0.5214 -0.5707
vn -0.8181 0.3185 -0.4787
vn -0.9428 0.1807 -0.2803
vn -0.3738 -0.6313 0.6795
vn -0.3533 -0.7146 0.6038
vn -0.0376 -0.7592 0.6497
vn 0.8003 -0.2400 0.5495
vn 0.8181 -0.3185 0.4787
vn 0.9428 -0.1807 0.2803
vn 0.8345 0.4867 -0.2584
vn 0.8523 0.4073 -0.3282
vn 0.6817 0.4847 -0.5479
vn -0.3147 0.6236 -0.7156
vn -0.2943 0.5386 -0.7895
vn -0.5498 0.3695 -0.7492
vn -0.9904 -0.0792 -0.1131
vn -0.9712 -0.1551 -0.1806
vn -0.9331 -0.3591 -0.0208
vn -0.6022 -0.7600 0.2444
vn -0.2562 -0.9161 0.3085
vn 0.0778 -0.8548 0.5131
vn 0.5813 -0.6724 0.4581
vn 0.8102 -0.5462 0.2125
vn 0.9608 -0.2522 0.1155
vn 0.9749 0.0475 -0.2177
vn 0.8415 0.1188 -0.5270
vn 0.6299 0.3590 -0.6887
vn -0.8547 -0.5130 -0.0799
vn -0.8363 -0.3896 -0.3858
vn -0.6019 -0.5809 -0.5480
vn 0.1376 0.4154 -0.8992
vn -0.2028 0.2197 -0.9543
vn -0.5576 0.1871 -0.8087
vn -0.5387 -0.7772 0.3252
vn -0.3873 -0.4206 0.8204
vn -0.1612 -0.9758 0.1477
vn -0.8222 -0.5674 0.0451
vn -0.7217 -0.0836 -0.6871
vn -0.7444 0.6675 -0.0163
vn -0.1615 -0.6492 0.7433
vn 0.8437 0.0564 -0.5338
vn -0.4702 0.5812 -0.6642
vn -0.9858 0.0783 0.1482
vn 0.3873 0.4206 -0.8204
vn -0.1449 0.6134 -0.7763
vn 0.9806 0.0593 -0.1870
vn 0.4533 -0.4297 0.7809
vn -0.0646 -0.6080 -0.7913
vn 0.2798 0.7248 -0.6296
vn 0.1612 0.9758 -0.1477
vn 0.0301 0.8884 -0.4581
vn -0.3210 0.8634 -0.3892
vn 0.5788 -0.6873 -0.4389
vn -0.9587 -0.2593 0.1167
vn -0.0383 0.1849 0.9820
vn 0.4418 0.1178 -0.8893
vn 0.0076 -0.3476 0.9376
vn 0.7217 0.0836 0.6871
vn 0.7517 -0.2615 0.6054
vn 0.9354 -0.2455 0.2544
vn 0.8222 0.5674 -0.0451
vn 0.8693 0.3699 -0.3278
vn 0.6579 0.4911 -0.5709
vn 0.1615 0.6492 -0.7433
vn -0.1054 0.6916 -0.7145
vn -0.3362 0.7608 -0.5552
vn -0.1212 -0.4625 0.8783
vn 0.4702 -0.5812 0.6642
vn 0.8713 -0.4358 0.2257
vn 0.6666 0.3372 -0.6648
vn 0.6640 -0.6252 0.4101
vn -0.8713 0.4358 -0.2257
vn 0.7444 -0.6675 0.0163
vn -0.6666 -0.3372 0.6648
vn 0.1449 -0.6134 0.7763
vn 0.1054 -0.6916 0.7145
vn 0.3362 -0.7608 0.5552
vn -0.9208 0.3539 0.1639
vn -0.8081 0.2715 0.5228
vn 0.1098 -0.7163 -0.6891
vn 0.1212 0.4625 -0.8783
vn -0.4533 0.4297 -0.7809
vn -0.7517 0.2615 -0.6054
vn -0.9354 0.2455 -0.2544
vn -0.9806 -0.0593 0.1870
vn -0.8693 -0.3699 0.3278
vn -0.6579 -0.4911 0.5709
vn -0.2798 -0.7248 0.6296
vn -0.0301 -0.8884 0.4581
vn 0.3210 -0.8634 0.3892
vn -0.0076 0.3476 -0.9376
vn 0.0646 0.6080 0.7913
vn 0.0383 -0.1849 -0.9820
vn 0.0203 -0.9959 0.0876
vn 0.1163 -0.0548 -0.9917
vn 0.7969 -0.5818 0.1630
vn 0.7108 -0.0204 0.7031
vn -0.1236 -0.0574 0.9907
vn -0.5788 0.6873 0.4389
vn -0.4418 -0.1178 0.8893
vn -0.3660 -0.7964 -0.4814
vn 0.7515 0.5893 0.2967
vn -0.7515 -0.5893 -0.2967
vn 0.2666 0.6307 0.7288
vn -0.8278 -0.5594 0.0426
vn 0.9858 -0.0783 -0.1482
vn -0.7969 0.5818 -0.1630
vn -0.8935 0.4285 0.1342
vn -0.6665 -0.7453 0.0163
vn -0.0203 0.9959 -0.0876
vn -0.1069 -0.8815 -0.4599
vn 0.9208 -0.3539 -0.1639
vn 0.5364 0.6264 -0.5656
vn 0.7878 0.4855 -0.3791
vn 0.1236 0.0573 -0.9907
vn -0.7108 0.0204 -0.7031
vn -0.7843 -0.2842 -0.5515
vn -0.9434 -0.2125 -0.2548
vn -0.9073 -0.3763 -0.1879
vn -0.1098 0.7163 0.6891
vn -0.1163 0.0548 0.9917
vn 0.9073 0.3763 0.1879
vn -0.8710 0.1900 0.4531
vn -0.4696 0.6940 0.5457
vn -0.6539 -0.5286 0.5413
vn 0.9587 0.2593 -0.1167
vn 0.8894 0.1577 -0.4292
vn 0.3126 -0.4602 -0.8310
vn 0.7843 0.2842 0.5515
vn 0.9434 0.2125 0.2548
vn 0.8935 -0.4285 -0.1342
vn -0.7878 -0.4855 0.3791
vn -0.5364 -0.6264 0.5656
vn 0.2196 0.9691 -0.1120
vn 0.3660 0.7964 0.4814
vn 0.9646 -0.0711 -0.2541
vn 0.8568 0.0421 0.5139
vn 0.2665 -0.5552 0.7879
vn -0.8136 -0.5314 0.2361
vn -0.4300 -0.4127 0.8030
vn 0.8710 -0.1900 -0.4531
vn 0.6651 0.2066 -0.7176
vn -0.2666 -0.6307 -0.7288
vn -0.8894 -0.1577 0.4292
vn 0.6539 0.5286 -0.5413
vn -0.3126 0.4602 0.8310
vn 0.3196 0.5641 -0.7613
vn 0.4696 -0.6940 -0.5457
vn 0.8278 0.5594 -0.0426
vn -0.9646 0.0711 0.2541
vn -0.8806 -0.2247 0.4173
vn -0.8437 -0.0564 0.5338
vn 0.8136 0.5314 -0.2361
vn -0.2196 -0.9691 0.1120
vn -0.2665 0.5552 -0.7879
vn 0.0174 0.3876 -0.9217
vn 0.8081 -0.2715 -0.5228
vn -0.8568 -0.0421 -0.5139
vn -0.7438 -0.3684 -0.5578
vn 0.7403 0.6084 0.2861
vn 0.4300 0.4127 -0.8030
vn -0.2646 -0.5576 -0.7868
vn 0.1069 0.8815 0.4599
vn -0.7403 -0.6084 -0.2861
vn -0.6651 -0.2066 0.7176
vn 0.2646 0.5576 0.7868
vn 0.6665 0.7453 -0.0163
vn 0.5387 0.7772 -0.3252
vn -0.3196 -0.5641 0.7613
vn -0.0174 -0.3876 0.9217
vn 0.7438 0.3684 0.5578
vn 0.8806 0.2247 -0.4173
vn -0.6640 0.6252 -0.4101
vt 0.181819 0.000000
vt 0.909091 0.000000
vt 0.727273 0.000000
vt 0.545455 0.000000
vt 0.363637 0.000000
vt 0.272728 0.157461
vt 1.000000 0.157461
vt 0.090910 0.157461
vt 0.818182 0.157461
vt 0.636364 0.157461
vt 0.454546 0.157461
vt 0.181819 0.314921
vt 0.000000 0.314921
vt 0.909091 0.314921
vt 0.727273 0.314921
vt 0.545455 0.314921
vt 0.363637 0.314921
vt 0.454546 0.472382
vt 0.636364 0.472382
vt 0.818182 0.472382
vt 0.090910 0.472382
vt 0.272728 0.472382
vt 0.954545 0.078731
vt 0.136365 0.078731
vt 0.318182 0.078731
vt 0.227273 0.078731
vt 0.181819 0.157461
vt 0.363637 0.157461
vt 0.500000 0.078731
vt 0.409092 0.078731
vt 0.772727 0.078731
vt 0.863636 0.078731
vt 0.909091 0.157461
vt 0.590909 0.078731
vt 0.681818 0.078731
vt 0.727273 0.157461
vt 0.545455 0.157461
vt 0.318182 0.236191
vt 0.409092 0.236191
vt 0.136365 0.236191
vt 0.227273 0.236191
vt 0.863636 0.236191
vt 0.045455 0.236191
vt 0.954545 0.236191
vt 0.681818 0.236191
vt 0.772727 0.236191
vt 0.500000 0.236191
vt 0.590909 0.236191
vt 0.272728 0.314921
vt 0.090910 0.314921
vt 0.818182 0.314921
vt 0.636364 0.314921
vt 0.454546 0.314921
vt 0.136365 0.393651
vt 0.227273 0.393651
vt 0.409092 0.393651
vt 0.318182 0.393651
vt 0.863636 0.393651
vt 0.045455 0.393651
vt 0.681818 0.393651
vt 0.772727 0.393651
vt 0.500000 0.393651
vt 0.590909 0.393651
vt 0.909091 0.000000
vt 0.727273 0.000000
vt 0.545455 0.000000
vt 0.181819 0.000000
vt 0.363637 0.000000
vt 0.272728 0.157461
vt 0.090910 0.157461
vt 1.000000 0.157461
vt 0.818182 0.157461
vt 0.636364 0.157461
vt 0.454546 0.157461
vt 0.181819 0.314921
vt 0.000000 0.314921
vt 0.909091 0.314921
vt 0.727273 0.314921
vt 0.545455 0.314921
vt 0.363637 0.314921
vt 0.454546 0.472382
vt 0.818182 0.472382
vt 0.090910 0.472382
vt 0.272728 0.472382
vt 0.636364 0.472382
vt 0.136365 0.078731
vt 0.954545 0.078731
vt 0.318182 0.078731
vt 0.227273 0.078731
vt 0.181819 0.157461
vt 0.363637 0.157461
vt 0.500000 0.078731
vt 0.409092 0.078731
vt 0.772727 0.078731
vt 0.863636 0.078731
vt 0.909091 0.157461
vt 0.590909 0.078731
vt 0.681818 0.078731
vt 0.727273 0.157461
vt 0.545455 0.157461
vt 0.318182 0.236191
vt 0.409092 0.236191
vt 0.136365 0.236191
vt 0.227273 0.236191
vt 0.863636 0.236191
vt 0.045455 0.236191
vt 0.954545 0.236191
vt 0.681818 0.236191
vt 0.772727 0.236191
vt 0.500000 0.236191
vt 0.590909 0.236191
vt 0.272728 0.314921
vt 0.090910 0.314921
vt 0.818182 0.314921
vt 0.636364 0.314921
vt 0.454546 0.314921
vt 0.136365 0.393651
vt 0.227273 0.393651
vt 0.409092 0.393651
vt 0.318182 0.393651
vt 0.045455 0.393651
vt 0.863636 0.393651
vt 0.681818 0.393651
vt 0.772727 0.393651
vt 0.500000 0.393651
vt 0.590909 0.393651
vt 0.181819 0.000000
vt 0.909091 0.000000
vt 0.727273 0.000000
vt 0.545455 0.000000
vt 0.363637 0.000000
vt 0.272728 0.157461
vt 0.818182 0.157461
vt 0.454546 0.157461
vt 0.000000 0.314921
vt 0.909091 0.314921
vt 0.727273 0.314921
vt 0.363637 0.314921
vt 0.454546 0.472382
vt 0.636364 0.472382
vt 0.818182 0.472382
vt 0.090910 0.472382
vt 0.272728 0.472382
vt 0.136365 0.078731
vt 0.954545 0.078731
vt 0.227273 0.078731
vt 0.318182 0.078731
vt 0.363637 0.157461
vt 0.409092 0.078731
vt 0.500000 0.078731
vt 0.772727 0.078731
vt 0.863636 0.078731
vt 0.909091 0.157461
vt 0.681818 0.078731
vt 0.590909 0.078731
vt 0.727273 0.157461
vt 0.318182 0.236191
vt 0.409092 0.236191
vt 0.227273 0.236191
vt 0.863636 0.236191
vt 0.045455 0.236191
vt 0.954545 0.236191
vt 0.681818 0.236191
vt 0.772727 0.236191
vt 0.500000 0.236191
vt 0.272728 0.314921
vt 0.818182 0.314921
vt 0.454546 0.314921
vt 0.136365 0.393651
vt 0.227273 0.393651
vt 0.409092 0.393651
vt 0.318182 0.393651
vt 0.863636 0.393651
vt 0.045455 0.393651
vt 0.772727 0.393651
vt 0.681818 0.393651
vt 0.500000 0.393651
vt 0.590909 0.393651
vt 0.181819 0.000000
vt 0.909091 0.000000
vt 0.727273 0.000000
vt 0.545455 0.000000
vt 0.363637 0.000000
vt 0.090910 0.157461
vt 1.000000 0.157461
vt 0.818182 0.157461
vt 0.636364 0.157461
vt 0.454546 0.157461
vt 0.181819 0.314921
vt 0.000000 0.314921
vt 0.909091 0.314921
vt 0.545455 0.314921
vt 0.363637 0.314921
vt 0.636364 0.472382
vt 0.818182 0.472382
vt 0.454546 0.472382
vt 0.090910 0.472382
vt 0.272728 0.472382
vt 0.136365 0.078731
vt 0.954545 0.078731
vt 0.318182 0.078731
vt 0.227273 0.078731
vt 0.363637 0.157461
vt 0.409092 0.078731
vt 0.500000 0.078731
vt 0.772727 0.078731
vt 0.863636 0.078731
vt 0.909091 0.157461
vt 0.590909 0.078731
vt 0.681818 0.078731
vt 0.727273 0.157461
vt 0.545455 0.157461
vt 0.318182 0.236191
vt 0.409092 0.236191
vt 0.863636 0.236191
vt 0.954545 0.236191
vt 0.045455 0.236191
vt 0.772727 0.236191
vt 0.500000 0.236191
vt 0.272728 0.314921
vt 0.090910 0.314921
vt 0.818182 0.314921
vt 0.454546 0.314921
vt 0.136365 0.393651
vt 0.227273 0.393651
vt 0.409092 0.393651
vt 0.318182 0.393651
vt 0.045455 0.393651
vt 0.863636 0.393651
vt 0.772727 0.393651
vt 0.681818 0.393651
vt 0.590909 0.393651
vt 0.500000 0.393651
s 0
usemtl Material.100
f 1/1/1 14/26/1 13/24/1
f 2/6/2 14/25/2 16/28/2
f 1/2/3 13/23/3 18/32/3
f 1/3/4 18/31/4 20/35/4
f 1/4/5 20/34/5 17/29/5
f 2/6/6 16/28/6 23/38/6
f 3/8/7 15/27/7 25/40/7
f 4/9/8 19/33/8 27/42/8
f 5/10/9 21/36/9 29/45/9
f 6/11/10 22/37/10 31/47/10
f 2/6/11 23/38/11 26/41/11
f 3/8/12 25/40/12 28/43/12
f 4/9/13 27/42/13 30/46/13
f 5/10/14 29/45/14 32/48/14
f 6/11/15 31/47/15 24/39/15
f 7/12/16 33/49/16 38/55/16
f 8/13/17 34/50/17 40/59/17
f 9/15/18 35/51/18 41/61/18
f 10/16/19 36/52/19 42/63/19
f 11/17/20 37/53/20 39/56/20
f 39/56/21 42/62/21 12/18/21
f 39/56/22 37/53/22 42/62/22
f 37/53/23 10/16/23 42/62/23
f 42/63/24 41/60/24 12/19/24
f 42/63/25 36/52/25 41/60/25
f 36/52/26 9/15/26 41/60/26
f 41/61/27 40/58/27 12/20/27
f 41/61/28 35/51/28 40/58/28
f 35/51/29 8/14/29 40/58/29
f 40/59/30 38/54/30 12/21/30
f 40/59/31 34/50/31 38/54/31
f 34/50/32 7/12/32 38/54/32
f 38/55/33 39/57/33 12/22/33
f 38/55/34 33/49/34 39/57/34
f 33/49/35 11/17/35 39/57/35
f 24/39/36 37/53/36 11/17/36
f 24/39/37 31/47/37 37/53/37
f 31/47/38 10/16/38 37/53/38
f 32/48/39 36/52/39 10/16/39
f 32/48/40 29/45/40 36/52/40
f 29/45/41 9/15/41 36/52/41
f 30/46/42 35/51/42 9/15/42
f 30/46/43 27/42/43 35/51/43
f 27/42/44 8/14/44 35/51/44
f 28/43/45 34/50/45 8/13/45
f 28/43/46 25/40/46 34/50/46
f 25/40/47 7/12/47 34/50/47
f 26/41/48 33/49/48 7/12/48
f 26/41/49 23/38/49 33/49/49
f 23/38/50 11/17/50 33/49/50
f 31/47/51 32/48/51 10/16/51
f 31/47/52 22/37/52 32/48/52
f 22/37/53 5/10/53 32/48/53
f 29/45/54 30/46/54 9/15/54
f 29/45/55 21/36/55 30/46/55
f 21/36/56 4/9/56 30/46/56
f 27/42/57 28/44/57 8/14/57
f 27/42/58 19/33/58 28/44/58
f 19/33/59 3/7/59 28/44/59
f 25/40/60 26/41/60 7/12/60
f 25/40/61 15/27/61 26/41/61
f 15/27/62 2/6/62 26/41/62
f 23/38/63 24/39/63 11/17/63
f 23/38/64 16/28/64 24/39/64
f 16/28/65 6/11/65 24/39/65
f 17/29/66 22/37/66 6/11/66
f 17/29/67 20/34/67 22/37/67
f 20/34/68 5/10/68 22/37/68
f 20/35/69 21/36/69 5/10/69
f 20/35/70 18/31/70 21/36/70
f 18/31/71 4/9/71 21/36/71
f 18/32/72 19/33/72 4/9/72
f 18/32/73 13/23/73 19/33/73
f 13/23/74 3/7/74 19/33/74
f 16/28/75 17/30/75 6/11/75
f 16/28/76 14/25/76 17/30/76
f 14/25/77 1/5/77 17/30/77
f 13/24/78 15/27/78 3/8/78
f 13/24/79 14/26/79 15/27/79
f 14/26/80 2/6/80 15/27/80
f 129/203/81 130/204/81 121/188/81 137/214/81
f 69/105/82 77/114/82 72/109/82 46/72/82
f 43/64/83 55/87/83 60/95/83
f 43/65/84 60/94/84 62/98/84
f 43/66/85 62/97/85 59/92/85
f 74/111/86 78/115/86 84/126/86 52/79/86
f 46/72/87 61/96/87 69/105/87
f 65/101/88 75/112/88 49/75/88 68/104/88 44/69/88
f 48/74/89 64/100/89 73/110/89
f 102/158/90 111/168/90 113/171/90 91/138/90
f 65/101/91 58/91/91 66/102/91 53/80/91
f 48/74/92 73/110/92 66/102/92
f 49/75/93 75/112/93 80/118/93
f 50/76/94 76/113/94 82/121/94
f 122/189/95 118/184/95 127/199/95 117/179/95 128/202/95
f 53/80/96 79/116/96 81/119/96
f 81/119/97 84/125/97 54/81/97
f 81/119/98 79/116/98 84/125/98
f 79/116/99 52/79/99 84/125/99
f 56/89/100 57/90/100 55/86/100 43/67/100
f 101/157/101 95/148/101 102/158/101 91/138/101
f 83/124/102 82/122/102 54/82/102
f 58/91/103 65/101/103 44/69/103 56/88/103 59/93/103
f 77/114/104 50/77/104 82/122/104
f 82/121/105 80/117/105 54/83/105
f 82/121/106 76/113/106 80/117/106
f 76/113/107 49/75/107 80/117/107
f 80/118/108 81/120/108 54/84/108
f 80/118/109 75/112/109 81/120/109
f 75/112/110 53/80/110 81/120/110
f 66/102/111 79/116/111 53/80/111
f 66/102/112 73/110/112 79/116/112
f 73/110/113 52/79/113 79/116/113
f 69/105/114 50/77/114 77/114/114
f 70/106/115 76/113/115 50/76/115
f 67/103/116 49/75/116 76/113/116
f 65/101/117 53/80/117 75/112/117
f 67/103/118 76/113/118 70/106/118 45/70/118
f 64/100/119 47/73/119 74/111/119
f 55/86/120 57/90/120 67/103/120 45/70/120
f 63/99/121 46/72/121 72/109/121
f 69/105/122 70/107/122 50/77/122
f 69/105/123 61/96/123 70/107/123
f 61/96/124 45/71/124 70/107/124
f 71/108/125 78/115/125 74/111/125 47/73/125
f 71/108/126 51/78/126 83/123/126 78/115/126
f 103/159/127 112/169/127 105/161/127 93/144/127
f 58/91/128 48/74/128 66/102/128
f 59/92/129 64/100/129 48/74/129
f 59/92/130 62/97/130 64/100/130
f 62/97/131 47/73/131 64/100/131
f 62/98/132 63/99/132 47/73/132
f 62/98/133 60/94/133 63/99/133
f 60/94/134 46/72/134 63/99/134
f 60/95/135 61/96/135 46/72/135
f 60/95/136 55/87/136 61/96/136
f 55/87/137 45/71/137 61/96/137
f 58/91/138 59/93/138 48/74/138
f 150/232/139 124/192/139 120/187/139 149/231/139 126/194/139
f 56/88/140 43/68/140 59/93/140
f 85/127/141 94/146/141 93/144/141
f 118/184/142 122/189/142 146/224/142 143/221/142 139/217/142
f 85/128/143 93/145/143 97/152/143
f 85/129/144 97/151/144 99/154/144
f 85/130/145 99/155/145 96/150/145
f 84/126/146 78/115/146 83/123/146 54/85/146
f 72/109/147 77/114/147 82/122/147 83/124/147 51/78/147
f 129/203/148 136/213/148 128/201/148
f 106/163/149 100/156/149 107/164/149 90/137/149
f 101/157/150 109/166/150 103/159/150 86/132/150
f 99/154/151 100/156/151 106/163/151
f 95/148/152 101/157/152 86/132/152 94/147/152
f 97/152/153 98/153/153 104/160/153 87/133/153
f 113/171/154 116/177/154 92/139/154
f 113/171/155 111/168/155 116/177/155
f 136/213/156 129/203/156 137/214/156 125/193/156
f 116/178/157 115/176/157 92/140/157
f 94/146/158 86/132/158 103/159/158 93/144/158
f 67/103/159 57/90/159 68/104/159 49/75/159
f 115/175/160 114/173/160 92/141/160
f 115/175/161 110/167/161 114/173/161
f 114/174/162 112/169/162 92/142/162
f 112/170/163 113/172/163 92/143/163
f 112/170/164 109/166/164 113/172/164
f 109/166/165 91/138/165 113/172/165
f 101/157/166 91/138/166 109/166/166
f 99/155/167 106/163/167 116/178/167 108/165/167
f 133/209/168 120/187/168 124/192/168 141/219/168 135/212/168
f 100/156/169 87/133/169 107/164/169
f 108/165/170 111/168/170 102/158/170 88/134/170
f 108/165/171 116/177/171 111/168/171
f 141/219/172 145/223/172 137/214/172 121/188/172
f 104/160/173 110/167/173 107/164/173 87/133/173
f 104/160/174 89/136/174 114/173/174 110/167/174
f 105/161/175 112/169/175 114/174/175 89/135/175
f 99/154/176 97/151/176 100/156/176
f 97/151/177 87/133/177 100/156/177
f 97/152/178 93/145/178 98/153/178
f 95/148/179 94/147/179 96/149/179
f 94/147/180 85/131/180 96/149/180
f 149/230/181 144/222/181 148/229/181 126/195/181
f 140/218/182 144/222/182 149/230/182
f 117/180/183 127/200/183 131/207/183
f 117/181/184 131/206/184 133/210/184
f 117/182/185 133/209/185 130/205/185
f 137/214/186 145/223/186 147/226/186 125/193/186
f 121/188/187 135/212/187 141/219/187
f 104/160/188 98/153/188 105/162/188 89/136/188
f 127/200/189 118/185/189 139/216/189 132/208/189
f 103/159/190 109/166/190 112/170/190
f 95/148/191 96/149/191 88/134/191 102/158/191
f 138/215/192 132/208/192 139/216/192 123/191/192
f 108/165/193 88/134/193 96/150/193 99/155/193
f 123/190/194 143/221/194 148/228/194
f 93/145/195 105/162/195 98/153/195
f 107/164/196 110/167/196 115/175/196 90/137/196
f 147/226/197 150/233/197 126/196/197
f 147/226/198 145/223/198 150/233/198
f 63/99/199 72/109/199 51/78/199 71/108/199 47/73/199
f 131/207/200 132/208/200 138/215/200 119/186/200
f 128/201/201 117/183/201 130/204/201 129/203/201
f 148/228/202 146/224/202 126/197/202
f 148/228/203 143/221/203 146/224/203
f 56/89/204 44/69/204 68/104/204 57/90/204
f 146/225/205 147/227/205 126/198/205
f 146/225/206 142/220/206 147/227/206
f 131/206/207 119/186/207 140/218/207 134/211/207
f 139/217/208 143/221/208 123/190/208
f 128/202/209 136/213/209 142/220/209 146/225/209 122/189/209
f 106/163/210 90/137/210 115/176/210 116/178/210
f 136/213/211 125/193/211 147/227/211 142/220/211
f 141/219/212 124/192/212 150/233/212 145/223/212
f 140/218/213 149/231/213 120/187/213 133/210/213 134/211/213
f 138/215/214 144/222/214 140/218/214 119/186/214
f 138/215/215 123/191/215 148/229/215 144/222/215
f 130/205/216 135/212/216 121/188/216
f 130/205/217 133/209/217 135/212/217
f 133/210/218 131/206/218 134/211/218
f 131/207/219 127/200/219 132/208/219
f 73/110/220 64/100/220 74/111/220 52/79/220
