# Blender 3.5.1
# www.blender.org
mtllib krzok.mtl
o Icosphere.015
v 0.702956 0.059376 0.059482
v -0.021704 0.150195 0.659145
v -0.800448 0.019762 0.569200
v -0.686972 0.302745 -0.301267
v 0.177027 0.129178 -0.538117
v -0.993130 1.051021 0.351840
v -0.557573 -0.090945 0.323592
v -0.335436 0.164358 0.717784
v -0.867300 0.096062 0.037670
v -0.293005 0.205455 -0.442188
v 0.882316 0.408780 -0.246170
v 0.518714 0.370343 -0.623235
v 0.695590 0.415773 0.318833
v -0.118290 0.404821 0.823525
v -1.138483 0.427969 0.570229
v 0.925304 0.993637 -0.073968
v -0.627294 1.168271 0.602504
v 0.599842 1.326311 -0.264667
v -0.146781 1.508600 0.539934
v 0.538488 -0.033808 0.057413
v 0.642947 0.000706 -0.122021
v -0.574982 0.076513 0.666347
v -0.785297 0.207237 -0.180528
v 0.822770 0.194583 -0.075088
v 0.642802 0.548371 -0.596483
v 0.632617 0.637462 0.414546
v -0.824584 0.440314 -0.209196
v -1.134922 0.762245 0.486540
v 0.743999 0.957408 0.238821
v -0.026167 1.016142 0.757977
v -0.874180 1.124806 0.498288
v -0.463032 1.160020 -0.287751
v 0.532401 0.837303 -0.588413
v 0.300935 1.538634 -0.024687
v -0.175847 1.284179 0.676037
v -0.747383 1.301794 0.306686
v 0.332382 0.044833 -0.451362
v -0.705829 -0.071632 0.453734
v -0.889185 0.001288 0.328269
v -0.516873 0.259166 -0.379762
v 0.845795 0.582900 -0.419344
v 0.348957 0.214496 -0.601960
v 0.730958 0.210455 0.193279
v -0.079606 0.231324 0.758190
v -1.001713 0.155654 0.588862
v -0.642809 0.476787 -0.354617
v 0.895220 0.881293 -0.343415
v 0.342957 0.930197 0.614726
v -0.865097 1.140229 0.136097
v -0.017988 1.044764 -0.525461
v -0.084224 1.629562 0.373129
v -0.206977 1.625216 0.215703
v 0.265538 1.441741 -0.250863
v -0.375759 1.402273 0.570690
v 0.072250 1.499647 0.482139
v 0.678134 1.235697 0.128994
v 0.826098 1.189424 -0.201732
v 0.268582 0.450261 -0.666675
v -0.939442 0.796991 0.638492
v -0.854963 0.441343 0.724094
v 0.027533 0.676409 0.788628
v 0.067255 0.373176 0.744653
v 0.863973 0.708842 0.127124
v 0.961783 0.700958 -0.178337
v -0.291849 0.623573 -0.526518
v -0.165461 0.352016 -0.549837
v -1.126042 0.504216 0.280453
v -1.066491 0.209726 0.307674
v -0.279577 0.444925 0.836483
v -0.231409 0.271608 0.805352
v 0.480299 0.385600 0.505697
v 0.734130 0.361324 -0.470142
v 0.543592 -0.057445 -0.066426
v 0.747118 0.111957 -0.169547
v -0.859717 0.318963 -0.149266
v 0.822723 0.265127 0.057485
v 0.027876 0.256416 0.726625
v -0.869695 0.243837 0.699622
v -0.755320 0.539861 -0.275084
v 0.247449 0.314033 -0.643145
v 0.637585 1.129369 0.268970
v -0.051597 1.218108 0.699781
v -0.728410 1.293670 0.417988
v -0.368410 1.294174 -0.255651
v 0.580782 1.010587 -0.514783
v 0.191284 1.548529 -0.100256
v 0.289912 1.303516 -0.387112
v -0.046143 1.214617 -0.430675
v -0.187217 1.609590 0.083677
v -0.422569 1.445232 -0.019855
v -0.200829 1.624794 0.335662
v -0.316622 1.296500 0.653259
v 0.040972 1.592301 0.389502
v 0.106525 1.361955 0.572777
v 0.340103 1.113964 0.557355
v 0.701666 1.299162 -0.018951
v 0.845586 1.039863 -0.346323
v 0.524860 0.667448 -0.633350
v 0.275021 0.613313 -0.668698
v -0.008160 0.874271 -0.588550
v -0.516269 1.015739 -0.328331
v -0.757562 0.858536 -0.196232
v -0.935640 0.977254 0.082090
v -1.019639 0.896997 0.561777
v -0.802621 0.688622 0.707754
v -0.043788 0.796856 0.801096
v 0.768810 0.771918 0.262206
v 0.918616 0.620959 -0.005132
v 0.925013 0.724399 -0.325811
v -0.287019 0.786014 -0.514250
v -1.139271 0.691549 0.336952
v -1.067853 0.338655 0.190720
v -1.016038 0.100124 0.412733
v -0.299488 0.332314 0.822799
v -0.167011 0.215435 0.769498
v 0.507181 0.526638 0.514567
v 0.753800 0.482685 -0.509737
v 0.673755 0.224983 -0.421804
v 0.412046 0.120803 -0.522310
v -0.511293 0.191082 -0.332873
v -0.699236 0.154437 -0.196420
v -0.784675 -0.063876 0.307895
vn -0.4056 -0.8150 -0.4137
vn 0.5136 -0.8472 0.1360
vn -0.6478 0.4564 -0.6099
vn -0.4493 -0.5004 -0.7401
vn 0.7348 -0.6781 -0.0140
vn -0.8016 -0.3799 -0.4616
vn 0.4859 0.8724 0.0528
vn 0.8230 -0.4761 0.3097
vn 0.0972 -0.9769 0.1905
vn 0.6606 0.0814 -0.7463
vn -0.5067 -0.1422 0.8503
vn -0.1149 -0.9354 -0.3345
vn 0.1178 -0.2253 -0.9671
vn -0.8526 -0.0143 -0.5223
vn 0.7769 0.3815 0.5008
vn -0.5197 0.1573 -0.8397
vn 0.9470 0.2460 -0.2066
vn 0.0320 0.3170 -0.9479
vn -0.7411 0.6215 0.2539
vn -0.1582 -0.4837 0.8608
vn 0.3002 0.8589 -0.4149
vn -0.1794 0.7544 -0.6315
vn 0.4800 0.0528 0.8757
vn 0.1304 0.0319 0.9910
vn 0.0800 0.5407 0.8374
vn -0.5869 0.7855 -0.1963
vn 0.8043 -0.1290 0.5801
vn 0.1774 0.7491 0.6382
vn -0.5103 0.8556 0.0870
vn 0.5686 0.6983 0.4348
vn -0.8255 0.1239 -0.5506
vn 0.7976 0.5330 0.2823
vn 0.3417 0.6096 -0.7153
vn -0.2853 -0.0172 -0.9583
vn 0.3987 0.3006 0.8664
vn 0.4520 -0.4874 -0.7471
vn 0.1830 -0.8688 0.4602
vn -0.4993 -0.8274 0.2570
vn 0.4639 -0.0884 0.8815
vn -0.6234 0.1717 0.7628
vn -0.3802 0.4267 0.8206
vn -0.4471 0.1075 0.8880
vn 0.1103 0.9896 -0.0926
vn 0.0296 0.4272 -0.9037
vn 0.0628 -0.7414 0.6681
vn 0.8421 0.1777 0.5092
vn 0.9519 0.0390 0.3038
vn 0.9172 -0.2096 -0.3388
vn 0.1805 -0.0322 -0.9830
vn -0.1762 -0.7866 -0.5918
vn 0.4399 -0.6306 0.6393
vn -0.1532 0.1887 0.9700
vn -0.6051 0.5890 -0.5357
vn -0.9996 -0.0195 -0.0187
vn -0.9692 -0.2081 -0.1314
vn -0.7180 -0.6382 -0.2778
vn -0.9063 -0.4017 0.1315
vn 0.0602 -0.1602 0.9852
vn 0.4603 -0.7469 -0.4799
vn -0.6352 -0.1434 -0.7589
vn -0.8826 0.3941 -0.2564
vn 0.8206 -0.3024 -0.4849
vn 0.5240 -0.2860 -0.8022
vn 0.6624 0.2088 0.7195
vn -0.2218 -0.4246 -0.8778
vn 0.5223 0.2027 -0.8283
vn -0.3523 0.3724 -0.8586
vn -0.3989 0.7365 0.5463
vn 0.9651 -0.2466 0.0883
vn 0.5301 -0.4375 0.7264
vn 0.5848 0.5363 0.6086
vn -0.2393 0.2952 0.9250
vn 0.2816 -0.2846 0.9163
vn -0.3958 -0.1934 -0.8977
vn -0.0531 -0.8037 0.5927
vn -0.1928 -0.0986 0.9763
vn 0.7924 -0.4691 -0.3901
vn -0.2300 -0.1309 -0.9644
vt 0.272728 0.157461
vt 1.000000 0.157461
vt 0.090910 0.157461
vt 0.818182 0.157461
vt 0.636364 0.157461
vt 0.454546 0.157461
vt 0.727273 0.314921
vt 0.772727 0.078731
vt 0.863636 0.078731
vt 0.909091 0.157461
vt 0.727273 0.157461
vt 0.545455 0.157461
vt 0.318183 0.236191
vt 0.409092 0.236191
vt 0.227274 0.236191
vt 0.045455 0.236191
vt 0.954545 0.236191
vt 0.772728 0.236191
vt 0.272728 0.314921
vt 0.818182 0.314921
vt 0.409092 0.393651
vt 0.318182 0.393651
vt 0.045455 0.393651
vt 0.863636 0.393651
vt 0.295455 0.118096
vt 0.250001 0.118096
vt 0.318182 0.157461
vt 0.863636 0.157461
vt 0.681819 0.157461
vt 0.295455 0.196826
vt 0.386364 0.275556
vt 0.204546 0.275556
vt 0.659091 0.196826
vt 0.750000 0.275556
vt 0.227274 0.314921
vt 0.045455 0.314921
vt 0.772728 0.314921
vt 0.590910 0.314921
vt 0.409092 0.314921
vt 0.295455 0.433017
vt 0.431819 0.433017
vt 0.022728 0.354286
vt 0.886364 0.354286
vt 0.704546 0.354286
vt 0.750000 0.354286
vt 0.409092 0.157461
vt 0.795455 0.118096
vt 0.840909 0.118096
vt 0.772728 0.157461
vt 0.590910 0.157461
vt 0.340910 0.275556
vt 0.431819 0.196826
vt 0.250001 0.196826
vt 0.977273 0.196826
vt 0.068183 0.196826
vt 0.795455 0.196826
vt 0.613637 0.196826
vt 0.318182 0.314921
vt 0.136364 0.314921
vt 0.681819 0.314921
vt 0.500001 0.314921
vt 0.068183 0.433017
vt 0.840909 0.433017
vt 0.659091 0.433017
vt 0.795455 0.433017
vt 0.454546 0.393652
vt 0.840909 0.354286
vt 0.090910 0.393652
vt 0.250001 0.354286
vt 0.295455 0.354286
vt 0.454546 0.236191
vt 0.795455 0.275556
vt 0.818182 0.236191
vt 0.068182 0.275556
vt 0.090910 0.236191
vt 0.250001 0.275556
vt 0.295455 0.275556
vt 0.545455 0.236191
vt 0.522728 0.196826
vt 0.727273 0.236191
vt 0.750000 0.196826
vt 0.909091 0.236191
vt 0.931818 0.196826
vt 0.181819 0.236191
vt 0.363637 0.236191
vt 0.318182 0.131218
vt 0.318182 0.183704
vt 0.681818 0.183704
vt 0.272728 0.209948
vt 0.090910 0.209948
vt 0.818182 0.209948
vt 0.636364 0.209948
vt 0.454546 0.209948
vt 0.227274 0.341165
vt 0.045455 0.341165
vt 0.772727 0.341165
vt 0.590909 0.341165
vt 0.409092 0.341165
vt 0.454546 0.419895
vt 0.454546 0.367408
vt 0.500000 0.341165
vt 0.636364 0.419895
vt 0.636364 0.367408
vt 0.818182 0.419895
vt 0.863636 0.341165
vt 0.090910 0.419895
vt 0.090910 0.367408
vt 0.136364 0.341165
vt 0.272728 0.367408
vt 0.318182 0.341165
vt 0.409092 0.288678
vt 0.454546 0.262434
vt 0.500000 0.288678
vt 0.590910 0.288678
vt 0.636364 0.262434
vt 0.681819 0.288678
vt 0.772728 0.288678
vt 0.818182 0.262434
vt 0.045455 0.288678
vt 0.227274 0.288678
vt 0.272728 0.262434
vt 0.318183 0.288678
vt 0.545455 0.262434
vt 0.727273 0.262434
vt 0.727273 0.209948
vt 0.772727 0.183704
vt 0.909091 0.209948
vt 0.954545 0.183704
vt 0.181819 0.262434
vt 0.363637 0.262434
vt 0.363637 0.209948
vt 0.409092 0.183704
vt 0.590910 0.131218
vt 0.681819 0.131218
vt 0.772727 0.131218
s 0
usemtl Material.065
f 121/134/1 122/135/1 39/49/1 9/11/1 23/29/1
f 1/1/2 20/25/2 73/86/2 21/27/2
f 101/114/3 102/115/3 103/116/3 49/60/3 32/38/3
f 120/133/4 121/134/4 23/29/4 4/5/4 40/50/4
f 1/1/5 21/27/5 74/87/5 24/30/5
f 9/11/6 68/81/6 112/125/6 75/88/6 23/29/6
f 93/106/7 96/109/7 57/70/7 18/22/7 34/40/7 51/62/7
f 1/1/8 24/30/8 76/89/8 43/53/8
f 20/25/9 7/9/9 73/86/9
f 41/51/10 117/130/10 25/31/10 47/58/10 109/122/10
f 15/18/11 45/56/11 78/91/11 60/73/11
f 121/134/12 120/133/12 37/46/12 21/27/12 73/86/12 7/8/12 38/47/12 122/135/12
f 12/14/13 42/52/13 80/93/13 58/71/13
f 75/88/14 112/125/14 67/80/14 27/33/14
f 16/19/15 56/69/15 81/94/15 29/35/15
f 79/92/16 102/115/16 101/114/16 110/123/16 65/78/16 46/57/16
f 16/19/17 64/77/17 109/122/17 47/58/17 97/110/17 57/70/17
f 98/111/18 99/112/18 100/113/18 50/61/18 33/39/18
f 6/7/19 28/34/19 104/117/19 31/37/19 83/96/19 36/45/19
f 8/10/20 70/83/20 114/127/20 78/91/20 45/56/20 3/4/20 22/28/20
f 18/21/21 53/66/21 86/99/21 34/41/21
f 87/100/22 88/101/22 84/97/22 90/103/22 89/102/22 86/99/22 53/66/22
f 61/74/23 116/129/23 26/32/23 48/59/23 30/36/23 106/119/23
f 106/119/24 69/82/24 14/16/24 61/74/24
f 82/95/25 94/107/25 55/68/25 19/24/25 54/67/25 92/105/25 35/42/25
f 90/103/26 49/60/26 6/7/26 36/44/26 52/64/26 89/102/26
f 26/32/27 116/129/27 71/84/27 13/15/27 43/53/27 76/89/27 108/121/27 63/76/27 107/120/27
f 19/23/28 55/68/28 93/106/28 51/62/28
f 83/96/29 91/104/29 52/65/29 36/45/29
f 55/68/30 56/69/30 96/109/30 93/106/30
f 103/116/31 102/115/31 79/92/31 27/33/31 67/80/31 111/124/31
f 16/19/32 57/70/32 96/109/32 56/69/32
f 18/22/33 57/70/33 97/110/33 85/98/33 87/100/33 53/66/33
f 65/78/34 110/123/34 100/113/34 99/112/34 58/71/34 66/79/34 46/57/34
f 30/36/35 48/59/35 95/108/35 94/107/35 82/95/35
f 118/131/36 119/132/36 42/52/36 12/14/36 72/85/36
f 20/26/37 1/1/37 2/2/37 8/10/37 22/28/37 38/48/37 7/9/37
f 39/49/38 122/135/38 38/47/38 3/4/38 45/56/38 113/126/38
f 61/74/39 14/16/39 62/75/39 71/84/39 116/129/39
f 15/18/40 59/72/40 104/117/40 28/34/40
f 17/20/41 31/37/41 104/117/41 59/72/41
f 15/18/42 60/73/42 105/118/42 59/72/42
f 52/65/43 91/104/43 51/63/43 34/41/43 86/99/43 89/102/43
f 33/39/44 50/61/44 88/101/44 87/100/44 85/98/44
f 2/2/45 44/54/45 115/128/45 70/83/45 8/10/45
f 16/19/46 29/35/46 107/120/46 63/76/46
f 16/19/47 63/76/47 108/121/47 64/77/47
f 11/13/48 41/51/48 109/122/48 64/77/48
f 12/14/49 58/71/49 99/112/49 98/111/49 25/31/49
f 37/46/50 120/133/50 40/50/50 10/12/50 5/6/50 42/52/50 119/132/50
f 43/53/51 77/90/51 44/55/51 2/3/51 1/1/51
f 35/42/52 105/118/52 60/73/52 69/82/52 106/119/52 30/36/52 82/95/52
f 32/38/53 49/60/53 90/103/53 84/97/53
f 15/18/54 28/34/54 111/124/54 67/80/54
f 15/18/55 67/80/55 112/125/55 68/81/55
f 9/11/56 39/49/56 113/126/56 68/81/56
f 15/18/57 68/81/57 113/126/57 45/56/57
f 14/17/58 69/82/58 114/127/58 70/83/58
f 118/131/59 74/87/59 21/27/59 37/46/59 119/132/59
f 27/33/60 79/92/60 46/57/60 4/5/60 23/29/60 75/88/60
f 103/116/61 111/124/61 28/34/61 6/7/61 49/60/61
f 11/13/62 72/85/62 117/130/62 41/51/62
f 12/14/63 25/31/63 117/130/63 72/85/63
f 81/94/64 95/108/64 48/59/64 26/32/64 107/120/64 29/35/64
f 66/79/65 80/93/65 42/52/65 5/6/65 10/12/65
f 25/31/66 98/111/66 33/39/66 85/98/66 97/110/66 47/58/66
f 100/113/67 110/123/67 101/114/67 32/38/67 84/97/67 88/101/67 50/61/67
f 17/20/68 54/67/68 19/24/68 51/63/68 91/104/68 83/96/68 31/37/68
f 11/13/69 64/77/69 108/121/69 76/89/69 24/30/69
f 43/53/70 13/15/70 71/84/70 62/75/70 77/90/70
f 94/107/71 95/108/71 81/94/71 56/69/71 55/68/71
f 35/43/72 92/105/72 54/67/72 17/20/72 59/72/72 105/118/72
f 14/17/73 70/83/73 115/128/73 44/55/73 77/90/73 62/75/73
f 10/12/74 40/50/74 4/5/74 46/57/74 66/79/74
f 3/4/75 38/48/75 22/28/75
f 60/73/76 78/91/76 114/127/76 69/82/76
f 74/87/77 118/131/77 72/85/77 11/13/77 24/30/77
f 58/71/78 80/93/78 66/79/78
