# Blender 3.5.1
# www.blender.org
mtllib trawa1.mtl
o Icosphere.012
v 0.009272 -0.021021 0.078898
v 0.062477 0.103874 0.004581
v -0.005662 0.132102 0.047063
v -0.074098 0.086569 0.008364
v -0.048253 0.030198 -0.058035
v 0.036155 0.040894 -0.060373
v 0.011989 0.288656 -0.111886
v -0.072419 0.277960 -0.109549
v -0.098741 0.214980 -0.174502
v -0.030602 0.186752 -0.216985
v 0.037834 0.232285 -0.178285
v -0.045536 0.339875 -0.248820
v 0.005305 0.037301 0.088955
v 0.045356 0.020709 0.063984
v 0.036578 0.110713 0.045272
v 0.061158 0.057102 -0.017877
v 0.029884 -0.016309 0.025806
v -0.034920 0.010537 0.066208
v -0.043699 0.100541 0.047496
v -0.019729 -0.022596 0.027180
v -0.068733 0.040643 -0.014279
v -0.003928 0.013796 -0.054682
v 0.062145 0.169599 -0.087185
v 0.046673 0.132580 -0.125363
v 0.006902 0.219325 -0.023185
v 0.046954 0.202733 -0.048156
v -0.082937 0.186274 -0.044558
v -0.042711 0.213038 -0.021811
v -0.083218 0.116121 -0.121766
v -0.098409 0.149255 -0.082737
v 0.006448 0.105816 -0.148110
v -0.043166 0.099529 -0.146736
v 0.032469 0.278211 -0.155642
v -0.032336 0.305058 -0.115240
v -0.097421 0.261752 -0.152044
v -0.072842 0.208141 -0.215194
v 0.007435 0.218313 -0.217417
v -0.016535 0.341450 -0.197101
v -0.001343 0.308316 -0.236129
v -0.066148 0.335163 -0.195727
v -0.081620 0.298145 -0.233906
v -0.041569 0.281553 -0.258876
v 0.050913 -0.070592 0.147785
v -0.066202 0.029681 0.161276
v -0.088466 -0.020002 0.095851
v -0.024786 -0.001610 0.033714
v 0.036836 0.059437 0.060738
v 0.011239 0.078776 0.139576
v -0.214284 0.160638 0.055540
v -0.188687 0.141299 -0.023297
v -0.111247 0.190394 -0.044998
v -0.088982 0.240077 0.020428
v -0.152662 0.221686 0.082565
v -0.228361 0.290668 -0.031507
v -0.006496 -0.072569 0.132998
v 0.006591 -0.043367 0.171454
v -0.075334 -0.013630 0.140928
v -0.016729 0.044431 0.166628
v 0.052109 -0.014509 0.158699
v 0.030934 -0.061759 0.096475
v -0.050991 -0.032023 0.065948
v 0.067154 -0.025876 0.112360
v 0.022660 0.014670 0.045310
v 0.043835 0.061921 0.107534
v -0.113068 0.128431 0.133118
v -0.067550 0.157288 0.120363
v -0.162375 0.063344 0.078778
v -0.149288 0.092547 0.117234
v -0.109899 0.062787 -0.004085
v -0.147330 0.051977 0.032438
v -0.028160 0.127528 -0.000956
v -0.064381 0.091645 -0.016840
v -0.030119 0.168098 0.083840
v -0.015073 0.156731 0.037500
v -0.200108 0.205405 0.070969
v -0.221283 0.158154 0.008744
v -0.160719 0.175645 -0.050350
v -0.102114 0.233705 -0.024650
v -0.126458 0.252098 0.050330
v -0.244603 0.245951 0.003919
v -0.208383 0.281834 0.019803
v -0.229557 0.234584 -0.042421
v -0.184039 0.263442 -0.055176
v -0.170953 0.292644 -0.016720
v -0.043710 -0.108395 0.008594
v 0.084089 -0.068245 0.086105
v -0.032314 -0.002181 0.118548
v 0.066591 -0.000755 0.022724
v 0.102531 0.103616 0.264016
v 0.085033 0.171106 0.200635
v 0.201435 0.105042 0.168191
v 0.212832 0.211256 0.278145
v -0.027042 -0.113375 0.065301
v 0.008887 -0.112856 0.030491
v 0.073721 -0.049586 0.038797
v -0.001397 -0.073186 -0.006763
v -0.059532 -0.074025 0.049561
v -0.020343 -0.050943 0.129931
v -0.043683 -0.049187 0.005022
v -0.036984 0.013244 0.069651
v 0.152981 0.012600 0.124300
v 0.142696 0.052269 0.087046
v 0.137132 -0.012239 0.168839
v 0.026426 0.050592 0.199694
v 0.058916 0.011242 0.215435
v 0.031990 0.115100 0.117900
v 0.016141 0.090262 0.162439
v 0.110205 0.091619 0.071305
v 0.206106 0.089617 0.217088
v 0.095401 0.152447 0.247943
v 0.189465 0.153805 0.156809
v 0.212805 0.152049 0.281718
v 0.228654 0.176886 0.237179
v 0.170519 0.176048 0.293503
v 0.160234 0.215717 0.256248
v 0.196163 0.216236 0.221438
v -0.065913 -0.094134 0.040766
v 0.042380 0.000844 0.103496
v -0.009229 0.048219 0.045648
v -0.000461 0.022864 -0.041154
v 0.056568 -0.040181 -0.036952
v 0.231792 0.113501 0.064547
v 0.174763 0.176545 0.060345
v 0.188951 0.135521 -0.080103
v 0.240560 0.088145 -0.022255
v 0.297244 0.230498 -0.017373
v -0.034140 -0.066805 0.082741
v -0.010237 -0.098918 0.052735
v 0.061755 -0.067204 0.007054
v -0.025800 -0.090919 0.000188
v -0.064475 -0.038959 0.048739
v -0.000822 0.016868 0.085611
v -0.059321 -0.053862 -0.002282
v -0.026004 0.029811 0.000588
v 0.012671 -0.022149 -0.047963
v 0.169904 0.008223 0.015692
v 0.154341 0.016222 -0.036854
v 0.076990 0.120142 0.060248
v 0.107326 0.092296 0.094250
v 0.061427 0.128141 0.007701
v 0.124005 0.044069 -0.070857
v 0.257335 0.106554 0.022805
v 0.218660 0.158514 0.071356
v 0.169576 0.203569 0.016339
v 0.232153 0.119497 -0.062218
v 0.290652 0.190227 0.025675
v 0.295806 0.175323 -0.025346
v 0.257131 0.227283 0.023205
v 0.241568 0.235282 -0.029342
v 0.265471 0.203170 -0.059348
vn 0.4906 -0.1156 0.8637
vn 0.9844 -0.0981 0.1464
vn -0.3894 -0.1822 0.9029
vn -0.6083 -0.7060 0.3626
vn 0.1245 -0.9914 -0.0396
vn 0.9996 -0.0197 -0.0177
vn 0.3189 0.5662 0.7601
vn -0.8069 0.2196 0.5484
vn -0.8139 -0.5214 -0.2565
vn 0.3714 -0.6818 -0.6302
vn 0.9561 0.2400 0.1684
vn -0.0586 0.6313 0.7733
vn -0.9482 0.0792 0.3075
vn -0.5830 -0.6236 -0.5208
vn 0.6524 -0.4867 -0.5810
vn 0.7189 0.6724 0.1760
vn -0.4468 0.7600 0.4720
vn -0.9844 0.0981 -0.1464
vn -0.2475 -0.4154 -0.8753
vn 0.7970 -0.0475 -0.6022
vn 0.3894 0.1822 -0.9029
vn 0.5475 -0.1188 -0.8283
vn 0.2878 -0.3590 -0.8878
vn -0.4906 0.1156 -0.8637
vn -0.5800 -0.2197 -0.7844
vn -0.8427 -0.1871 -0.5049
vn -0.7748 0.5809 -0.2493
vn -0.9210 0.3896 -0.0046
vn -0.8109 0.5130 0.2815
vn -0.1245 0.9914 0.0396
vn -0.1054 0.9161 0.3869
vn 0.2834 0.8548 0.4347
vn 0.6083 0.7060 -0.3626
vn 0.8254 0.5462 -0.1424
vn 0.9222 0.2522 -0.2931
vn 0.8069 -0.2196 -0.5484
vn 0.6396 -0.4073 -0.6519
vn 0.3933 -0.4847 -0.7812
vn -0.3189 -0.5662 -0.7601
vn -0.5950 -0.5386 -0.5965
vn -0.8108 -0.3695 -0.4540
vn -0.9996 0.0197 0.0177
vn -0.9588 0.1551 0.2381
vn -0.8578 0.3591 0.3677
vn -0.3714 0.6818 0.6302
vn -0.0713 0.7146 0.6959
vn 0.2350 0.7592 0.6069
vn 0.8139 0.5214 0.2565
vn 0.9430 0.3185 0.0966
vn 0.9741 0.1807 -0.1356
vn 0.0586 -0.6313 -0.7733
vn 0.0713 -0.7146 -0.6959
vn -0.2350 -0.7592 -0.6069
vn -0.9561 -0.2400 -0.1684
vn -0.9430 -0.3185 -0.0966
vn -0.9741 -0.1807 0.1356
vn -0.6524 0.4867 0.5810
vn -0.6396 0.4073 0.6519
vn -0.3933 0.4847 0.7812
vn 0.5830 0.6236 0.5208
vn 0.5950 0.5386 0.5965
vn 0.8108 0.3695 0.4540
vn 0.9482 -0.0792 -0.3075
vn 0.9588 -0.1551 -0.2381
vn 0.8578 -0.3591 -0.3677
vn 0.4468 -0.7600 -0.4720
vn 0.1054 -0.9161 -0.3869
vn -0.2834 -0.8548 -0.4347
vn -0.7189 -0.6724 -0.1760
vn -0.8254 -0.5462 0.1424
vn -0.9222 -0.2522 0.2931
vn -0.7970 0.0475 0.6022
vn -0.5475 0.1188 0.8283
vn -0.2878 0.3590 0.8878
vn 0.8109 -0.5130 -0.2815
vn 0.9210 -0.3896 0.0046
vn 0.7748 -0.5809 0.2493
vn 0.2475 0.4154 0.8753
vn 0.5800 0.2197 0.7844
vn 0.8427 0.1871 0.5049
vn 0.3555 -0.7772 -0.5192
vn 0.0125 -0.4206 -0.9071
vn 0.0854 -0.9758 -0.2013
vn 0.7296 -0.5674 -0.3818
vn 0.9416 -0.0836 0.3262
vn 0.6842 0.6675 -0.2937
vn -0.1610 -0.6492 -0.7434
vn 0.3188 0.4125 0.8533
vn 0.7032 0.5812 0.4096
vn 0.7743 0.6252 0.0980
vn -0.0125 0.4206 0.9071
vn -0.7701 -0.3539 0.5308
vn 0.4536 0.6134 0.6465
vn -0.8149 0.0593 0.5766
vn -0.7362 -0.4297 -0.5229
vn 0.3867 -0.6080 0.6933
vn 0.0064 0.7248 0.6890
vn -0.0854 0.9758 0.2013
vn 0.1624 0.8884 0.4294
vn 0.4534 0.8634 0.2212
vn -0.3448 -0.6873 0.6393
vn 0.8241 -0.2593 -0.5036
vn -0.3721 0.1849 -0.9096
vn -0.0335 0.1178 0.9925
vn -0.9416 0.0836 -0.3262
vn -0.9350 -0.2615 -0.2394
vn -0.9567 -0.2455 0.1561
vn -0.7296 0.5674 0.3818
vn -0.6553 0.3699 0.6586
vn -0.3622 0.4911 0.7922
vn 0.1610 0.6492 0.7434
vn 0.3921 0.6916 0.6065
vn 0.5360 0.7608 0.3660
vn -0.7032 -0.5812 -0.4096
vn -0.8865 -0.4358 0.1557
vn 0.5467 -0.0564 -0.8355
vn -0.3311 0.3372 0.8813
vn -0.8358 -0.0783 0.5435
vn 0.8865 0.4358 -0.1557
vn -0.6842 -0.6675 0.2937
vn 0.3311 -0.3372 -0.8813
vn -0.4536 -0.6134 -0.6465
vn -0.3921 -0.6916 -0.6065
vn -0.5360 -0.7608 -0.3660
vn 0.5187 0.2715 -0.8107
vn -0.1857 0.7163 -0.6727
vn -0.3188 -0.4125 -0.8533
vn 0.7362 0.4297 0.5229
vn 0.9350 0.2615 0.2394
vn 0.9567 0.2455 -0.1561
vn 0.8149 -0.0593 -0.5766
vn 0.6553 -0.3699 -0.6586
vn 0.3622 -0.4911 -0.7922
vn -0.0064 -0.7248 -0.6890
vn -0.1624 -0.8884 -0.4294
vn -0.4534 -0.8634 -0.2212
vn -0.3867 0.6080 -0.6933
vn 0.3721 -0.1849 0.9096
vn -0.0548 -0.9959 -0.0714
vn -0.7357 0.5594 0.3819
vn -0.7927 -0.5818 0.1819
vn -0.9383 -0.0204 -0.3453
vn -0.2981 -0.0574 -0.9528
vn 0.3448 0.6873 -0.6393
vn 0.8358 0.0783 -0.5435
vn 0.5326 -0.7964 0.2864
vn -0.8069 0.5893 0.0415
vn 0.8069 -0.5893 -0.0415
vn -0.5447 0.6307 -0.5528
vn 0.3052 -0.0548 0.9507
vn 0.0335 -0.1178 -0.9925
vn 0.7927 0.5818 -0.1819
vn 0.7575 0.4285 -0.4924
vn 0.5998 -0.7453 -0.2911
vn 0.0548 0.9959 0.0714
vn 0.2879 -0.8815 0.3742
vn 0.7701 0.3539 -0.5308
vn -0.2537 0.6264 0.7371
vn -0.5598 0.4855 0.6715
vn 0.2981 0.0574 0.9528
vn -0.3052 0.0548 -0.9507
vn 0.9383 0.0204 0.3453
vn 0.9423 -0.2842 0.1768
vn 0.9641 -0.2125 -0.1591
vn 0.9035 -0.3763 -0.2050
vn -0.3708 0.5286 0.7636
vn -0.9035 0.3763 0.2050
vn 0.6048 0.1900 -0.7733
vn 0.2012 0.6940 -0.6913
vn 0.1857 -0.7163 0.6727
vn -0.8241 0.2593 0.5036
vn -0.6315 0.1577 0.7592
vn 0.0599 -0.4602 0.8858
vn -0.9423 0.2842 -0.1768
vn -0.9641 0.2125 0.1591
vn -0.7575 -0.4285 0.4924
vn 0.5598 -0.4855 -0.6715
vn 0.2537 -0.6264 -0.7371
vn -0.1535 0.9691 0.1930
vn -0.5326 0.7964 -0.2864
vn -0.7725 -0.0711 0.6310
vn -0.9927 0.0421 -0.1126
vn -0.5691 -0.5552 -0.6065
vn 0.6425 -0.5314 -0.5521
vn 0.0585 -0.4127 -0.9090
vn -0.6048 -0.1900 0.7733
vn -0.3079 0.2066 0.9287
vn 0.5447 -0.6307 0.5528
vn 0.6315 -0.1577 -0.7592
vn 0.7923 -0.6084 -0.0464
vn -0.0599 0.4602 -0.8858
vn 0.0247 0.5641 0.8253
vn -0.2012 -0.6940 0.6913
vn 0.7357 -0.5594 -0.3819
vn 0.7725 0.0711 -0.6310
vn 0.6284 -0.2247 -0.7447
vn -0.5467 0.0564 0.8355
vn -0.6425 0.5314 0.5521
vn 0.1535 -0.9691 -0.1930
vn 0.5691 0.5552 0.6065
vn 0.3661 0.3876 0.8460
vn -0.5187 -0.2715 0.8107
vn 0.9927 -0.0421 0.1126
vn 0.9080 -0.3684 0.1993
vn -0.7923 0.6084 0.0464
vn -0.0585 0.4127 0.9090
vn 0.5669 -0.5576 0.6064
vn -0.2879 0.8815 -0.3742
vn 0.3708 -0.5286 -0.7636
vn 0.3079 -0.2066 -0.9287
vn -0.5669 0.5576 -0.6064
vn -0.5998 0.7453 0.2911
vn -0.3555 0.7772 0.5192
vn -0.0247 -0.5641 -0.8253
vn -0.3661 -0.3876 -0.8460
vn -0.9080 0.3684 -0.1993
vn -0.6284 0.2247 0.7447
vn -0.7743 -0.6252 -0.0980
vt 0.181819 0.000000
vt 0.909091 0.000000
vt 0.727273 0.000000
vt 0.545455 0.000000
vt 0.363637 0.000000
vt 0.272728 0.157461
vt 1.000000 0.157461
vt 0.090910 0.157461
vt 0.818182 0.157461
vt 0.636364 0.157461
vt 0.454546 0.157461
vt 0.181819 0.314921
vt 0.000000 0.314921
vt 0.909091 0.314921
vt 0.727273 0.314921
vt 0.545455 0.314921
vt 0.363637 0.314921
vt 0.454546 0.472382
vt 0.636364 0.472382
vt 0.818182 0.472382
vt 0.090910 0.472382
vt 0.272728 0.472382
vt 0.954545 0.078731
vt 0.136365 0.078731
vt 0.318182 0.078731
vt 0.227273 0.078731
vt 0.181819 0.157461
vt 0.363637 0.157461
vt 0.500000 0.078731
vt 0.409092 0.078731
vt 0.772727 0.078731
vt 0.863636 0.078731
vt 0.909091 0.157461
vt 0.590909 0.078731
vt 0.681818 0.078731
vt 0.727273 0.157461
vt 0.545455 0.157461
vt 0.318182 0.236191
vt 0.409092 0.236191
vt 0.136365 0.236191
vt 0.227273 0.236191
vt 0.863636 0.236191
vt 0.045455 0.236191
vt 0.954545 0.236191
vt 0.681818 0.236191
vt 0.772727 0.236191
vt 0.500000 0.236191
vt 0.590909 0.236191
vt 0.272728 0.314921
vt 0.090910 0.314921
vt 0.818182 0.314921
vt 0.636364 0.314921
vt 0.454546 0.314921
vt 0.136365 0.393651
vt 0.227273 0.393651
vt 0.409092 0.393651
vt 0.318182 0.393651
vt 0.863636 0.393651
vt 0.045455 0.393651
vt 0.681818 0.393651
vt 0.772727 0.393651
vt 0.500000 0.393651
vt 0.590909 0.393651
vt 0.909091 0.000000
vt 0.727273 0.000000
vt 0.545455 0.000000
vt 0.181819 0.000000
vt 0.363637 0.000000
vt 0.272728 0.157461
vt 1.000000 0.157461
vt 0.090910 0.157461
vt 0.818182 0.157461
vt 0.636364 0.157461
vt 0.454546 0.157461
vt 0.181819 0.314921
vt 0.000000 0.314921
vt 0.909091 0.314921
vt 0.727273 0.314921
vt 0.545455 0.314921
vt 0.363637 0.314921
vt 0.454546 0.472382
vt 0.818182 0.472382
vt 0.090910 0.472382
vt 0.272728 0.472382
vt 0.636364 0.472382
vt 0.136365 0.078731
vt 0.954545 0.078731
vt 0.318182 0.078731
vt 0.227273 0.078731
vt 0.181819 0.157461
vt 0.363637 0.157461
vt 0.500000 0.078731
vt 0.409092 0.078731
vt 0.772727 0.078731
vt 0.863636 0.078731
vt 0.909091 0.157461
vt 0.590909 0.078731
vt 0.681818 0.078731
vt 0.727273 0.157461
vt 0.545455 0.157461
vt 0.318182 0.236191
vt 0.409092 0.236191
vt 0.136365 0.236191
vt 0.227273 0.236191
vt 0.863636 0.236191
vt 0.954545 0.236191
vt 0.045455 0.236191
vt 0.681818 0.236191
vt 0.772727 0.236191
vt 0.500000 0.236191
vt 0.590909 0.236191
vt 0.272728 0.314921
vt 0.090910 0.314921
vt 0.818182 0.314921
vt 0.636364 0.314921
vt 0.454546 0.314921
vt 0.136365 0.393651
vt 0.227273 0.393651
vt 0.409092 0.393651
vt 0.318182 0.393651
vt 0.045455 0.393651
vt 0.863636 0.393651
vt 0.681818 0.393651
vt 0.772727 0.393651
vt 0.500000 0.393651
vt 0.590909 0.393651
vt 0.181819 0.000000
vt 0.909091 0.000000
vt 0.727273 0.000000
vt 0.545455 0.000000
vt 0.363637 0.000000
vt 0.272728 0.157461
vt 0.818182 0.157461
vt 0.454546 0.157461
vt 0.000000 0.314921
vt 0.909091 0.314921
vt 0.727273 0.314921
vt 0.363637 0.314921
vt 0.454546 0.472382
vt 0.636364 0.472382
vt 0.818182 0.472382
vt 0.090910 0.472382
vt 0.272728 0.472382
vt 0.136365 0.078731
vt 0.954545 0.078731
vt 0.227273 0.078731
vt 0.318182 0.078731
vt 0.363637 0.157461
vt 0.409092 0.078731
vt 0.500000 0.078731
vt 0.772727 0.078731
vt 0.863636 0.078731
vt 0.909091 0.157461
vt 0.681818 0.078731
vt 0.590909 0.078731
vt 0.727273 0.157461
vt 0.318182 0.236191
vt 0.409092 0.236191
vt 0.227273 0.236191
vt 0.863636 0.236191
vt 0.045455 0.236191
vt 0.954545 0.236191
vt 0.681818 0.236191
vt 0.772727 0.236191
vt 0.500000 0.236191
vt 0.272728 0.314921
vt 0.818182 0.314921
vt 0.454546 0.314921
vt 0.136365 0.393651
vt 0.227273 0.393651
vt 0.409092 0.393651
vt 0.318182 0.393651
vt 0.863636 0.393651
vt 0.045455 0.393651
vt 0.772727 0.393651
vt 0.681818 0.393651
vt 0.500000 0.393651
vt 0.590909 0.393651
vt 0.181819 0.000000
vt 0.909091 0.000000
vt 0.727273 0.000000
vt 0.545455 0.000000
vt 0.363637 0.000000
vt 0.090910 0.157461
vt 1.000000 0.157461
vt 0.818182 0.157461
vt 0.636364 0.157461
vt 0.454546 0.157461
vt 0.181819 0.314921
vt 0.000000 0.314921
vt 0.909091 0.314921
vt 0.545455 0.314921
vt 0.363637 0.314921
vt 0.636364 0.472382
vt 0.818182 0.472382
vt 0.454546 0.472382
vt 0.090910 0.472382
vt 0.272728 0.472382
vt 0.136365 0.078731
vt 0.954545 0.078731
vt 0.318182 0.078731
vt 0.227273 0.078731
vt 0.363637 0.157461
vt 0.409092 0.078731
vt 0.500000 0.078731
vt 0.772727 0.078731
vt 0.863636 0.078731
vt 0.909091 0.157461
vt 0.590909 0.078731
vt 0.681818 0.078731
vt 0.727273 0.157461
vt 0.545455 0.157461
vt 0.318182 0.236191
vt 0.409092 0.236191
vt 0.863636 0.236191
vt 0.954545 0.236191
vt 0.045455 0.236191
vt 0.772727 0.236191
vt 0.500000 0.236191
vt 0.272728 0.314921
vt 0.090910 0.314921
vt 0.818182 0.314921
vt 0.454546 0.314921
vt 0.136365 0.393651
vt 0.227273 0.393651
vt 0.409092 0.393651
vt 0.318182 0.393651
vt 0.045455 0.393651
vt 0.863636 0.393651
vt 0.772727 0.393651
vt 0.681818 0.393651
vt 0.590909 0.393651
vt 0.500000 0.393651
s 0
usemtl Material.048
f 1/1/1 14/26/1 13/24/1
f 2/6/2 14/25/2 16/28/2
f 1/2/3 13/23/3 18/32/3
f 1/3/4 18/31/4 20/35/4
f 1/4/5 20/34/5 17/29/5
f 2/6/6 16/28/6 23/38/6
f 3/8/7 15/27/7 25/40/7
f 4/9/8 19/33/8 27/42/8
f 5/10/9 21/36/9 29/45/9
f 6/11/10 22/37/10 31/47/10
f 2/6/11 23/38/11 26/41/11
f 3/8/12 25/40/12 28/43/12
f 4/9/13 27/42/13 30/46/13
f 5/10/14 29/45/14 32/48/14
f 6/11/15 31/47/15 24/39/15
f 7/12/16 33/49/16 38/55/16
f 8/13/17 34/50/17 40/59/17
f 9/15/18 35/51/18 41/61/18
f 10/16/19 36/52/19 42/63/19
f 11/17/20 37/53/20 39/56/20
f 39/56/21 42/62/21 12/18/21
f 39/56/22 37/53/22 42/62/22
f 37/53/23 10/16/23 42/62/23
f 42/63/24 41/60/24 12/19/24
f 42/63/25 36/52/25 41/60/25
f 36/52/26 9/15/26 41/60/26
f 41/61/27 40/58/27 12/20/27
f 41/61/28 35/51/28 40/58/28
f 35/51/29 8/14/29 40/58/29
f 40/59/30 38/54/30 12/21/30
f 40/59/31 34/50/31 38/54/31
f 34/50/32 7/12/32 38/54/32
f 38/55/33 39/57/33 12/22/33
f 38/55/34 33/49/34 39/57/34
f 33/49/35 11/17/35 39/57/35
f 24/39/36 37/53/36 11/17/36
f 24/39/37 31/47/37 37/53/37
f 31/47/38 10/16/38 37/53/38
f 32/48/39 36/52/39 10/16/39
f 32/48/40 29/45/40 36/52/40
f 29/45/41 9/15/41 36/52/41
f 30/46/42 35/51/42 9/15/42
f 30/46/43 27/42/43 35/51/43
f 27/42/44 8/14/44 35/51/44
f 28/43/45 34/50/45 8/13/45
f 28/43/46 25/40/46 34/50/46
f 25/40/47 7/12/47 34/50/47
f 26/41/48 33/49/48 7/12/48
f 26/41/49 23/38/49 33/49/49
f 23/38/50 11/17/50 33/49/50
f 31/47/51 32/48/51 10/16/51
f 31/47/52 22/37/52 32/48/52
f 22/37/53 5/10/53 32/48/53
f 29/45/54 30/46/54 9/15/54
f 29/45/55 21/36/55 30/46/55
f 21/36/56 4/9/56 30/46/56
f 27/42/57 28/44/57 8/14/57
f 27/42/58 19/33/58 28/44/58
f 19/33/59 3/7/59 28/44/59
f 25/40/60 26/41/60 7/12/60
f 25/40/61 15/27/61 26/41/61
f 15/27/62 2/6/62 26/41/62
f 23/38/63 24/39/63 11/17/63
f 23/38/64 16/28/64 24/39/64
f 16/28/65 6/11/65 24/39/65
f 17/29/66 22/37/66 6/11/66
f 17/29/67 20/34/67 22/37/67
f 20/34/68 5/10/68 22/37/68
f 20/35/69 21/36/69 5/10/69
f 20/35/70 18/31/70 21/36/70
f 18/31/71 4/9/71 21/36/71
f 18/32/72 19/33/72 4/9/72
f 18/32/73 13/23/73 19/33/73
f 13/23/74 3/7/74 19/33/74
f 16/28/75 17/30/75 6/11/75
f 16/28/76 14/25/76 17/30/76
f 14/25/77 1/5/77 17/30/77
f 13/24/78 15/27/78 3/8/78
f 13/24/79 14/26/79 15/27/79
f 14/26/80 2/6/80 15/27/80
f 129/203/81 130/204/81 121/188/81 137/214/81
f 69/105/82 77/114/82 72/109/82 46/72/82
f 43/64/83 55/87/83 60/95/83
f 43/65/84 60/94/84 62/98/84
f 43/66/85 62/97/85 59/92/85
f 74/111/86 78/115/86 84/126/86 52/79/86
f 46/72/87 61/96/87 69/105/87
f 58/91/88 59/93/88 48/74/88 66/102/88
f 48/74/89 64/100/89 73/110/89
f 73/110/90 64/100/90 74/111/90 52/79/90
f 65/101/91 58/91/91 66/102/91 53/80/91
f 67/103/92 57/90/92 68/104/92 49/75/92
f 48/74/93 73/110/93 66/102/93
f 49/75/94 75/112/94 80/118/94
f 50/76/95 76/113/95 82/121/95
f 122/189/96 118/184/96 127/199/96 117/179/96 128/202/96
f 53/80/97 79/116/97 81/119/97
f 81/119/98 84/125/98 54/81/98
f 81/119/99 79/116/99 84/125/99
f 79/116/100 52/79/100 84/125/100
f 56/89/101 57/90/101 55/86/101 43/67/101
f 101/157/102 95/148/102 102/158/102 91/138/102
f 83/124/103 82/122/103 54/82/103
f 58/91/104 65/101/104 44/69/104 56/88/104 59/93/104
f 82/121/105 80/117/105 54/83/105
f 82/121/106 76/113/106 80/117/106
f 76/113/107 49/75/107 80/117/107
f 80/118/108 81/120/108 54/84/108
f 80/118/109 75/112/109 81/120/109
f 75/112/110 53/80/110 81/120/110
f 66/102/111 79/116/111 53/80/111
f 66/102/112 73/110/112 79/116/112
f 73/110/113 52/79/113 79/116/113
f 70/107/114 76/113/114 50/76/114
f 67/103/115 49/75/115 76/113/115
f 63/99/116 72/109/116 51/78/116 71/108/116 47/73/116
f 65/101/117 53/80/117 75/112/117
f 97/152/118 98/153/118 104/160/118 87/133/118
f 64/100/119 47/73/119 74/111/119
f 55/86/120 57/90/120 67/103/120 45/71/120
f 63/99/121 46/72/121 72/109/121
f 69/105/122 70/106/122 50/77/122
f 69/105/123 61/96/123 70/106/123
f 61/96/124 45/70/124 70/106/124
f 71/108/125 51/78/125 83/123/125 78/115/125
f 99/155/126 106/163/126 116/178/126 108/165/126
f 69/105/127 50/77/127 82/122/127 77/114/127
f 59/92/128 64/100/128 48/74/128
f 59/92/129 62/97/129 64/100/129
f 62/97/130 47/73/130 64/100/130
f 62/98/131 63/99/131 47/73/131
f 62/98/132 60/94/132 63/99/132
f 60/94/133 46/72/133 63/99/133
f 60/95/134 61/96/134 46/72/134
f 60/95/135 55/87/135 61/96/135
f 55/87/136 45/70/136 61/96/136
f 150/232/137 124/192/137 120/187/137 149/231/137 126/194/137
f 56/88/138 43/68/138 59/93/138
f 85/127/139 94/146/139 93/144/139
f 107/164/140 110/167/140 115/175/140 90/137/140
f 85/128/141 93/145/141 97/152/141
f 85/129/142 97/151/142 99/154/142
f 85/130/143 99/155/143 96/150/143
f 84/126/144 78/115/144 83/123/144 54/85/144
f 102/158/145 111/168/145 113/171/145 91/138/145
f 129/203/146 136/213/146 128/201/146
f 106/163/147 100/156/147 107/164/147 90/137/147
f 101/157/148 109/166/148 103/159/148 86/132/148
f 99/154/149 100/156/149 106/163/149
f 118/184/150 122/189/150 146/224/150 143/221/150 139/217/150
f 72/109/151 77/114/151 82/122/151 83/124/151 51/78/151
f 113/171/152 116/177/152 92/139/152
f 113/171/153 111/168/153 116/177/153
f 136/213/154 129/203/154 137/214/154 125/193/154
f 116/178/155 115/176/155 92/140/155
f 94/146/156 86/132/156 103/159/156 93/144/156
f 71/108/157 78/115/157 74/111/157 47/73/157
f 115/175/158 114/173/158 92/141/158
f 115/175/159 110/167/159 114/173/159
f 114/174/160 112/169/160 92/142/160
f 133/209/161 120/187/161 124/192/161 141/219/161 135/212/161
f 112/170/162 113/172/162 92/143/162
f 112/170/163 109/166/163 113/172/163
f 109/166/164 91/138/164 113/172/164
f 101/157/165 91/138/165 109/166/165
f 138/215/166 132/208/166 139/216/166 123/191/166
f 100/156/167 87/133/167 107/164/167
f 108/165/168 111/168/168 102/158/168 88/134/168
f 108/165/169 116/177/169 111/168/169
f 103/159/170 112/169/170 105/161/170 93/144/170
f 104/160/171 110/167/171 107/164/171 87/133/171
f 104/160/172 89/136/172 114/173/172 110/167/172
f 105/161/173 112/169/173 114/174/173 89/135/173
f 99/154/174 97/151/174 100/156/174
f 97/151/175 87/133/175 100/156/175
f 97/152/176 93/145/176 98/153/176
f 95/148/177 94/147/177 96/149/177
f 94/147/178 85/131/178 96/149/178
f 149/230/179 144/222/179 148/229/179 126/195/179
f 140/218/180 144/222/180 149/230/180
f 117/180/181 127/200/181 131/207/181
f 117/181/182 131/206/182 133/210/182
f 117/182/183 133/209/183 130/205/183
f 137/214/184 145/223/184 147/226/184 125/193/184
f 121/188/185 135/212/185 141/219/185
f 104/160/186 98/153/186 105/162/186 89/136/186
f 127/200/187 118/185/187 139/216/187 132/208/187
f 103/159/188 109/166/188 112/170/188
f 95/148/189 96/149/189 88/134/189 102/158/189
f 136/213/190 125/193/190 147/227/190 142/220/190
f 108/165/191 88/134/191 96/150/191 99/155/191
f 123/190/192 143/221/192 148/228/192
f 93/145/193 105/162/193 98/153/193
f 95/148/194 101/157/194 86/132/194 94/147/194
f 147/226/195 150/233/195 126/196/195
f 147/226/196 145/223/196 150/233/196
f 65/101/197 75/112/197 49/75/197 68/104/197 44/69/197
f 131/207/198 132/208/198 138/215/198 119/186/198
f 128/201/199 117/183/199 130/204/199 129/203/199
f 148/228/200 146/224/200 126/197/200
f 148/228/201 143/221/201 146/224/201
f 56/89/202 44/69/202 68/104/202 57/90/202
f 146/225/203 147/227/203 126/198/203
f 146/225/204 142/220/204 147/227/204
f 131/206/205 119/186/205 140/218/205 134/211/205
f 139/217/206 143/221/206 123/190/206
f 128/202/207 136/213/207 142/220/207 146/225/207 122/189/207
f 106/163/208 90/137/208 115/176/208 116/178/208
f 141/219/209 145/223/209 137/214/209 121/188/209
f 141/219/210 124/192/210 150/233/210 145/223/210
f 140/218/211 149/231/211 120/187/211 133/210/211 134/211/211
f 138/215/212 144/222/212 140/218/212 119/186/212
f 138/215/213 123/191/213 148/229/213 144/222/213
f 130/205/214 135/212/214 121/188/214
f 130/205/215 133/209/215 135/212/215
f 133/210/216 131/206/216 134/211/216
f 131/207/217 127/200/217 132/208/217
f 67/103/218 76/113/218 70/107/218 45/71/218
