# Blender 3.5.1
# www.blender.org
mtllib trawa2.mtl
o Icosphere.042
v -0.002130 -0.020410 0.120977
v -0.007731 0.074060 0.035474
v -0.029539 0.099210 0.120372
v -0.095410 0.064652 0.153774
v -0.114312 0.018143 0.089519
v -0.060124 0.023958 0.016406
v -0.104475 0.217511 0.015427
v -0.158663 0.211695 0.088540
v -0.211055 0.161593 0.069472
v -0.189248 0.136443 -0.015426
v -0.123376 0.171002 -0.048828
v -0.216656 0.256063 -0.016031
v 0.000591 0.025630 0.132648
v 0.013409 0.010848 0.082747
v -0.002701 0.081159 0.082391
v -0.020678 0.036927 0.021282
v -0.017386 -0.018601 0.071539
v -0.038127 0.005318 0.152282
v -0.054237 0.075629 0.151926
v -0.049237 -0.022020 0.114514
v -0.104066 0.027978 0.133792
v -0.083324 0.004059 0.053049
v -0.057857 0.123357 -0.017062
v -0.088652 0.093908 -0.028270
v -0.059565 0.165477 0.070608
v -0.046747 0.150694 0.020706
v -0.130134 0.141745 0.133216
v -0.091416 0.162059 0.113583
v -0.172040 0.084959 0.084240
v -0.160930 0.112296 0.122008
v -0.127371 0.073594 -0.008637
v -0.159222 0.070176 0.034338
v -0.114721 0.207675 -0.028845
v -0.135462 0.231594 0.051897
v -0.198109 0.198726 0.083664
v -0.216086 0.154494 0.022555
v -0.164549 0.160025 -0.046980
v -0.169550 0.257673 -0.009568
v -0.180660 0.230336 -0.047336
v -0.201401 0.254255 0.033407
v -0.232196 0.224806 0.022199
v -0.219378 0.210023 -0.027702
v 0.062704 -0.058828 0.125045
v -0.007170 0.023514 0.237047
v -0.057180 -0.016304 0.214735
v -0.049062 -0.005275 0.123572
v 0.005965 0.041358 0.089543
v 0.031855 0.059151 0.159675
v -0.162125 0.127959 0.304797
v -0.188015 0.110166 0.234665
v -0.148989 0.145803 0.157293
v -0.098979 0.185622 0.179606
v -0.107097 0.174593 0.270768
v -0.218864 0.228146 0.269295
v 0.016956 -0.059025 0.165100
v 0.046351 -0.035621 0.178215
v -0.024116 -0.010626 0.230933
v 0.028218 0.033726 0.198570
v 0.069289 -0.014674 0.132737
v 0.021727 -0.052543 0.111516
v -0.048739 -0.027548 0.164234
v 0.054071 -0.025132 0.091515
v -0.011623 0.006345 0.090649
v 0.035939 0.044215 0.111870
v -0.053456 0.101581 0.263869
v -0.030518 0.122528 0.218391
v -0.115196 0.050766 0.270756
v -0.085801 0.074170 0.283871
v -0.125642 0.046789 0.175949
v -0.130414 0.040307 0.229533
v -0.070359 0.095147 0.110469
v -0.102703 0.067736 0.130471
v -0.025746 0.129011 0.164807
v -0.040964 0.118552 0.123584
v -0.144536 0.162972 0.303691
v -0.192098 0.125103 0.282470
v -0.184377 0.135591 0.195770
v -0.132044 0.179943 0.163407
v -0.107420 0.196865 0.230106
v -0.210231 0.194450 0.302825
v -0.177886 0.221860 0.282824
v -0.225448 0.183991 0.261603
v -0.202510 0.204938 0.216125
v -0.173115 0.228343 0.229240
v -0.074895 -0.088956 0.120531
v 0.051054 -0.059449 0.059607
v -0.008001 -0.003470 0.181124
v 0.005036 -0.007581 0.038914
v 0.159293 0.078872 0.157649
v 0.113275 0.130740 0.136957
v 0.172330 0.074761 0.015439
v 0.239224 0.160247 0.076033
v -0.033175 -0.091996 0.140287
v -0.028439 -0.093489 0.088627
v 0.018543 -0.045657 0.040654
v -0.055488 -0.063002 0.076464
v -0.063150 -0.060585 0.160053
v 0.006145 -0.041748 0.175904
v -0.076941 -0.042666 0.120608
v -0.037622 0.007581 0.156224
v 0.116877 0.002742 0.026855
v 0.089828 0.033229 0.014692
v 0.130667 -0.015178 0.066301
v 0.074501 0.038061 0.181871
v 0.104478 0.006651 0.162106
v 0.033662 0.086468 0.130263
v 0.047453 0.068548 0.169708
v 0.059851 0.064640 0.034458
v 0.201951 0.063709 0.040339
v 0.145786 0.116948 0.155909
v 0.158185 0.113039 0.020660
v 0.241270 0.113957 0.075956
v 0.227479 0.131876 0.036510
v 0.219817 0.134292 0.120099
v 0.192768 0.164779 0.107936
v 0.197504 0.163286 0.056276
v -0.072071 -0.076357 0.159437
v 0.032924 -0.003679 0.108354
v -0.032472 0.033578 0.119373
v -0.073729 0.011382 0.058588
v -0.033832 -0.039592 0.010001
v 0.136056 0.078007 -0.072656
v 0.096158 0.128981 -0.024069
v 0.029402 0.093068 -0.122422
v 0.094798 0.055810 -0.133441
v 0.134397 0.165746 -0.173505
v -0.028482 -0.054891 0.158638
v -0.028976 -0.081471 0.118906
v -0.006499 -0.059861 0.031070
v -0.067719 -0.076000 0.100828
v -0.066920 -0.032992 0.165115
v -0.005206 0.009728 0.135090
v -0.091170 -0.046038 0.129386
v -0.067895 0.018580 0.105838
v -0.068694 -0.024428 0.041550
v 0.069108 -0.003785 -0.053244
v 0.030364 0.001686 -0.071322
v 0.031962 0.087703 0.057254
v 0.070401 0.065804 0.050777
v -0.006782 0.093174 0.039176
v -0.008075 0.023585 -0.064845
v 0.130221 0.070809 -0.119906
v 0.131020 0.113817 -0.055618
v 0.068825 0.149250 -0.045138
v 0.067532 0.079661 -0.149158
v 0.153497 0.135427 -0.143455
v 0.129246 0.122381 -0.179183
v 0.130045 0.165389 -0.114896
v 0.091302 0.170860 -0.132974
v 0.090808 0.144280 -0.172706
vn 0.9509 -0.1277 0.2821
vn 0.8515 -0.1002 -0.5147
vn 0.5354 -0.2371 0.8106
vn -0.0544 -0.8012 0.5959
vn 0.0408 -0.9980 -0.0491
vn 0.7275 0.0086 -0.6861
vn 0.7769 0.5633 0.2813
vn -0.0227 0.2480 0.9685
vn -0.7325 -0.6088 0.3048
vn -0.3183 -0.7339 -0.6001
vn 0.8176 0.3246 -0.4755
vn 0.5938 0.6376 0.4908
vn -0.3962 0.0658 0.9158
vn -0.7567 -0.6538 -0.0007
vn -0.1155 -0.5677 -0.8151
vn 0.5820 0.7549 -0.3024
vn 0.1353 0.8323 0.5376
vn -0.8515 0.1002 0.5147
vn -0.8265 -0.4039 -0.3921
vn -0.0410 -0.0144 -0.9991
vn -0.5354 0.2371 -0.8106
vn -0.4086 -0.0982 -0.9074
vn -0.5844 -0.3606 -0.7269
vn -0.9509 0.1277 -0.2821
vn -0.9585 -0.2205 -0.1809
vn -0.9657 -0.2206 0.1369
vn -0.7152 0.6547 0.2446
vn -0.6659 0.4785 0.5723
vn -0.2961 0.6312 0.7168
vn -0.0408 0.9980 0.0491
vn 0.2484 0.9336 0.2584
vn 0.4978 0.8626 0.0899
vn 0.0544 0.8012 -0.5959
vn 0.4051 0.6799 -0.6113
vn 0.3678 0.3765 -0.8503
vn 0.0227 -0.2480 -0.9685
vn -0.1932 -0.4661 -0.8634
vn -0.4436 -0.5159 -0.7328
vn -0.7769 -0.5633 -0.2813
vn -0.8253 -0.5629 -0.0452
vn -0.8918 -0.4233 0.1597
vn -0.7275 -0.0086 0.6861
vn -0.4801 0.1749 0.8596
vn -0.2526 0.4455 0.8589
vn 0.3183 0.7339 0.6001
vn 0.5231 0.7266 0.4455
vn 0.6085 0.7616 0.2229
vn 0.7325 0.6088 -0.3048
vn 0.7381 0.4245 -0.5244
vn 0.5767 0.2817 -0.7669
vn -0.5938 -0.6376 -0.4908
vn -0.5231 -0.7266 -0.4455
vn -0.6085 -0.7616 -0.2229
vn -0.8176 -0.3246 0.4755
vn -0.7381 -0.4245 0.5244
vn -0.5767 -0.2817 0.7669
vn 0.1155 0.5677 0.8151
vn 0.1932 0.4661 0.8634
vn 0.4436 0.5159 0.7328
vn 0.7567 0.6538 0.0007
vn 0.8253 0.5629 0.0452
vn 0.8918 0.4233 -0.1597
vn 0.3962 -0.0658 -0.9158
vn 0.4801 -0.1749 -0.8596
vn 0.2526 -0.4455 -0.8589
vn -0.1353 -0.8323 -0.5376
vn -0.2484 -0.9336 -0.2584
vn -0.4978 -0.8626 -0.0899
vn -0.5820 -0.7549 0.3024
vn -0.4051 -0.6799 0.6113
vn -0.3678 -0.3765 0.8503
vn 0.0410 0.0144 0.9991
vn 0.4086 0.0982 0.9074
vn 0.5844 0.3606 0.7269
vn 0.2961 -0.6312 -0.7168
vn 0.6659 -0.4785 -0.5723
vn 0.7152 -0.6547 -0.2446
vn 0.8265 0.4039 0.3921
vn 0.9585 0.2205 0.1809
vn 0.9657 0.2206 -0.1369
vn -0.2277 -0.8323 -0.5053
vn -0.7237 -0.4111 -0.5544
vn -0.1086 -0.9857 -0.1289
vn 0.1329 -0.6818 -0.7194
vn 0.9415 -0.0836 -0.3264
vn 0.1629 0.7789 -0.6056
vn -0.6783 -0.6467 -0.3488
vn 0.8485 0.4032 0.3429
vn 0.7598 0.6363 -0.1339
vn 0.5642 0.7263 -0.3926
vn 0.7237 0.4110 0.5544
vn -0.0107 -0.4786 0.8780
vn 0.7687 0.6232 0.1439
vn 0.0016 0.0308 0.9995
vn -0.8786 -0.4719 0.0724
vn 0.7497 -0.6145 0.2456
vn 0.5556 0.7311 0.3960
vn 0.1086 0.9857 0.1289
vn 0.4259 0.8929 0.1459
vn 0.4300 0.8939 -0.1271
vn 0.3196 -0.7359 0.5970
vn 0.0831 -0.3048 -0.9488
vn -0.9088 0.1994 -0.3665
vn 0.7752 0.0929 0.6248
vn -0.9415 0.0836 0.3264
vn -0.8509 -0.3400 0.4004
vn -0.5339 -0.3637 0.7633
vn -0.1329 0.6818 0.7194
vn 0.1905 0.4220 0.8864
vn 0.4682 0.5186 0.7154
vn 0.6783 0.6467 0.3488
vn 0.6989 0.6999 0.1469
vn 0.6000 0.7963 -0.0770
vn -0.7598 -0.6363 0.1339
vn -0.4525 -0.5755 0.6812
vn -0.4138 -0.0236 -0.9101
vn 0.5595 0.3396 0.7561
vn -0.0474 -0.1522 0.9872
vn 0.4525 0.5755 -0.6812
vn -0.1629 -0.7789 0.6056
vn -0.5595 -0.3396 -0.7561
vn -0.7687 -0.6232 -0.1439
vn -0.6989 -0.6999 -0.1469
vn -0.6000 -0.7963 0.0770
vn -0.3924 0.3473 -0.8517
vn -0.6148 0.7158 -0.3312
vn -0.8485 -0.4032 -0.3429
vn 0.8786 0.4719 -0.0724
vn 0.8509 0.3400 -0.4004
vn 0.5339 0.3637 -0.7633
vn -0.0016 -0.0308 -0.9995
vn -0.1905 -0.4220 -0.8864
vn -0.4682 -0.5186 -0.7154
vn -0.5556 -0.7311 -0.3960
vn -0.4259 -0.8929 -0.1459
vn -0.4300 -0.8939 0.1271
vn -0.7497 0.6145 -0.2456
vn 0.9088 -0.1994 0.3665
vn -0.0826 -0.9964 0.0212
vn -0.1375 0.6737 0.7261
vn -0.3421 -0.7122 0.6129
vn -0.9490 -0.0425 0.3125
vn -0.9057 -0.0393 -0.4220
vn -0.3196 0.7359 -0.5970
vn 0.0474 0.1522 -0.9872
vn 0.5461 -0.8351 -0.0657
vn -0.5096 0.7022 0.4972
vn 0.5096 -0.7022 -0.4972
vn -0.7533 0.6518 -0.0879
vn 0.9047 -0.0725 0.4198
vn -0.7752 -0.0929 -0.6248
vn 0.3421 0.7122 -0.6129
vn 0.0380 0.5579 -0.8290
vn 0.1228 -0.8458 -0.5191
vn 0.0826 0.9964 -0.0212
vn 0.4516 -0.8849 0.1145
vn 0.0107 0.4786 -0.8780
vn 0.4706 0.6539 0.5924
vn 0.2575 0.5464 0.7970
vn 0.9057 0.0393 0.4220
vn -0.9047 0.0725 -0.4198
vn 0.9490 0.0425 -0.3125
vn 0.8310 -0.3361 -0.4432
vn 0.5645 -0.2555 -0.7849
vn 0.4576 -0.4718 -0.7537
vn 0.4386 0.5626 0.7008
vn -0.4576 0.4718 0.7537
vn -0.3191 0.2676 -0.9092
vn -0.4311 0.7215 -0.5419
vn 0.6148 -0.7158 0.3312
vn -0.0831 0.3048 0.9488
vn 0.3011 0.1498 0.9417
vn 0.7144 -0.4770 0.5120
vn -0.8310 0.3361 0.4432
vn -0.5645 0.2555 0.7849
vn -0.0380 -0.5579 0.8290
vn -0.2575 -0.5464 -0.7970
vn -0.4706 -0.6539 -0.5924
vn 0.0646 0.9851 0.1596
vn -0.5461 0.8351 0.0657
vn 0.0868 -0.1395 0.9864
vn -0.8315 0.0261 0.5549
vn -0.8145 -0.5766 -0.0640
vn -0.0932 -0.6199 -0.7791
vn -0.7041 -0.4044 -0.5837
vn 0.3191 -0.2676 0.9092
vn 0.6077 0.1910 0.7709
vn 0.7533 -0.6518 0.0879
vn -0.3011 -0.1498 -0.9417
vn 0.4918 -0.7213 -0.4878
vn -0.7144 0.4770 -0.5120
vn 0.6761 0.5614 0.4773
vn 0.4311 -0.7215 0.5419
vn 0.1375 -0.6737 -0.7261
vn -0.0868 0.1395 -0.9864
vn -0.2896 -0.2339 -0.9281
vn 0.4138 0.0236 0.9101
vn 0.0932 0.6199 0.7791
vn -0.0646 -0.9851 -0.1596
vn 0.8145 0.5766 0.0640
vn 0.8696 0.3795 0.3159
vn 0.3924 -0.3473 0.8517
vn 0.8315 -0.0261 -0.5549
vn 0.8109 -0.4348 -0.3916
vn -0.4918 0.7213 0.4878
vn 0.7041 0.4044 0.5837
vn 0.8092 -0.5777 0.1069
vn -0.4516 0.8849 -0.1145
vn -0.4386 -0.5626 -0.7008
vn -0.6077 -0.1910 -0.7709
vn -0.8092 0.5777 -0.1069
vn -0.1228 0.8458 0.5191
vn 0.2277 0.8323 0.5053
vn -0.6761 -0.5614 -0.4773
vn -0.8696 -0.3795 -0.3159
vn -0.8109 0.4348 0.3916
vn 0.2896 0.2339 0.9281
vn -0.5642 -0.7263 0.3926
vt 0.181819 0.000000
vt 0.909091 0.000000
vt 0.727273 0.000000
vt 0.545455 0.000000
vt 0.363637 0.000000
vt 0.272728 0.157461
vt 1.000000 0.157461
vt 0.090910 0.157461
vt 0.818182 0.157461
vt 0.636364 0.157461
vt 0.454546 0.157461
vt 0.181819 0.314921
vt 0.000000 0.314921
vt 0.909091 0.314921
vt 0.727273 0.314921
vt 0.545455 0.314921
vt 0.363637 0.314921
vt 0.454546 0.472382
vt 0.636364 0.472382
vt 0.818182 0.472382
vt 0.090910 0.472382
vt 0.272728 0.472382
vt 0.954545 0.078731
vt 0.136365 0.078731
vt 0.318182 0.078731
vt 0.227273 0.078731
vt 0.181819 0.157461
vt 0.363637 0.157461
vt 0.500000 0.078731
vt 0.409092 0.078731
vt 0.772727 0.078731
vt 0.863636 0.078731
vt 0.909091 0.157461
vt 0.590909 0.078731
vt 0.681818 0.078731
vt 0.727273 0.157461
vt 0.545455 0.157461
vt 0.318182 0.236191
vt 0.409092 0.236191
vt 0.136365 0.236191
vt 0.227273 0.236191
vt 0.863636 0.236191
vt 0.045455 0.236191
vt 0.954545 0.236191
vt 0.681818 0.236191
vt 0.772727 0.236191
vt 0.500000 0.236191
vt 0.590909 0.236191
vt 0.272728 0.314921
vt 0.090910 0.314921
vt 0.818182 0.314921
vt 0.636364 0.314921
vt 0.454546 0.314921
vt 0.136365 0.393651
vt 0.227273 0.393651
vt 0.409092 0.393651
vt 0.318182 0.393651
vt 0.863636 0.393651
vt 0.045455 0.393651
vt 0.681818 0.393651
vt 0.772727 0.393651
vt 0.500000 0.393651
vt 0.590909 0.393651
vt 0.909091 0.000000
vt 0.727273 0.000000
vt 0.545455 0.000000
vt 0.181819 0.000000
vt 0.363637 0.000000
vt 0.272728 0.157461
vt 1.000000 0.157461
vt 0.090910 0.157461
vt 0.818182 0.157461
vt 0.636364 0.157461
vt 0.454546 0.157461
vt 0.181819 0.314921
vt 0.000000 0.314921
vt 0.909091 0.314921
vt 0.727273 0.314921
vt 0.545455 0.314921
vt 0.363637 0.314921
vt 0.454546 0.472382
vt 0.818182 0.472382
vt 0.090910 0.472382
vt 0.272728 0.472382
vt 0.636364 0.472382
vt 0.136365 0.078731
vt 0.954545 0.078731
vt 0.318182 0.078731
vt 0.227273 0.078731
vt 0.181819 0.157461
vt 0.363637 0.157461
vt 0.500000 0.078731
vt 0.409092 0.078731
vt 0.772727 0.078731
vt 0.863636 0.078731
vt 0.909091 0.157461
vt 0.590909 0.078731
vt 0.681818 0.078731
vt 0.727273 0.157461
vt 0.545455 0.157461
vt 0.318182 0.236191
vt 0.409092 0.236191
vt 0.136365 0.236191
vt 0.227273 0.236191
vt 0.863636 0.236191
vt 0.954545 0.236191
vt 0.045455 0.236191
vt 0.681818 0.236191
vt 0.772727 0.236191
vt 0.500000 0.236191
vt 0.590909 0.236191
vt 0.272728 0.314921
vt 0.090910 0.314921
vt 0.818182 0.314921
vt 0.636364 0.314921
vt 0.454546 0.314921
vt 0.136365 0.393651
vt 0.227273 0.393651
vt 0.409092 0.393651
vt 0.318182 0.393651
vt 0.045455 0.393651
vt 0.863636 0.393651
vt 0.681818 0.393651
vt 0.772727 0.393651
vt 0.500000 0.393651
vt 0.590909 0.393651
vt 0.181819 0.000000
vt 0.909091 0.000000
vt 0.727273 0.000000
vt 0.545455 0.000000
vt 0.363637 0.000000
vt 0.272728 0.157461
vt 0.818182 0.157461
vt 0.454546 0.157461
vt 0.000000 0.314921
vt 0.909091 0.314921
vt 0.727273 0.314921
vt 0.363637 0.314921
vt 0.454546 0.472382
vt 0.636364 0.472382
vt 0.818182 0.472382
vt 0.090910 0.472382
vt 0.272728 0.472382
vt 0.136365 0.078731
vt 0.954545 0.078731
vt 0.227273 0.078731
vt 0.318182 0.078731
vt 0.363637 0.157461
vt 0.409092 0.078731
vt 0.500000 0.078731
vt 0.772727 0.078731
vt 0.863636 0.078731
vt 0.909091 0.157461
vt 0.681818 0.078731
vt 0.590909 0.078731
vt 0.727273 0.157461
vt 0.318182 0.236191
vt 0.409092 0.236191
vt 0.227273 0.236191
vt 0.863636 0.236191
vt 0.045455 0.236191
vt 0.954545 0.236191
vt 0.681818 0.236191
vt 0.772727 0.236191
vt 0.500000 0.236191
vt 0.272728 0.314921
vt 0.818182 0.314921
vt 0.454546 0.314921
vt 0.136365 0.393651
vt 0.227273 0.393651
vt 0.409092 0.393651
vt 0.318182 0.393651
vt 0.863636 0.393651
vt 0.045455 0.393651
vt 0.772727 0.393651
vt 0.681818 0.393651
vt 0.500000 0.393651
vt 0.590909 0.393651
vt 0.181819 0.000000
vt 0.909091 0.000000
vt 0.727273 0.000000
vt 0.545455 0.000000
vt 0.363637 0.000000
vt 0.090910 0.157461
vt 1.000000 0.157461
vt 0.818182 0.157461
vt 0.636364 0.157461
vt 0.454546 0.157461
vt 0.181819 0.314921
vt 0.000000 0.314921
vt 0.909091 0.314921
vt 0.545455 0.314921
vt 0.363637 0.314921
vt 0.636364 0.472382
vt 0.818182 0.472382
vt 0.454546 0.472382
vt 0.090910 0.472382
vt 0.272728 0.472382
vt 0.136365 0.078731
vt 0.954545 0.078731
vt 0.318182 0.078731
vt 0.227273 0.078731
vt 0.363637 0.157461
vt 0.409092 0.078731
vt 0.500000 0.078731
vt 0.772727 0.078731
vt 0.863636 0.078731
vt 0.909091 0.157461
vt 0.590909 0.078731
vt 0.681818 0.078731
vt 0.727273 0.157461
vt 0.545455 0.157461
vt 0.318182 0.236191
vt 0.409092 0.236191
vt 0.863636 0.236191
vt 0.954545 0.236191
vt 0.045455 0.236191
vt 0.772727 0.236191
vt 0.500000 0.236191
vt 0.272728 0.314921
vt 0.090910 0.314921
vt 0.818182 0.314921
vt 0.454546 0.314921
vt 0.136365 0.393651
vt 0.227273 0.393651
vt 0.409092 0.393651
vt 0.318182 0.393651
vt 0.045455 0.393651
vt 0.863636 0.393651
vt 0.772727 0.393651
vt 0.681818 0.393651
vt 0.590909 0.393651
vt 0.500000 0.393651
s 0
usemtl Material.050
f 1/1/1 14/26/1 13/24/1
f 2/6/2 14/25/2 16/28/2
f 1/2/3 13/23/3 18/32/3
f 1/3/4 18/31/4 20/35/4
f 1/4/5 20/34/5 17/29/5
f 2/6/6 16/28/6 23/38/6
f 3/8/7 15/27/7 25/40/7
f 4/9/8 19/33/8 27/42/8
f 5/10/9 21/36/9 29/45/9
f 6/11/10 22/37/10 31/47/10
f 2/6/11 23/38/11 26/41/11
f 3/8/12 25/40/12 28/43/12
f 4/9/13 27/42/13 30/46/13
f 5/10/14 29/45/14 32/48/14
f 6/11/15 31/47/15 24/39/15
f 7/12/16 33/49/16 38/55/16
f 8/13/17 34/50/17 40/59/17
f 9/15/18 35/51/18 41/61/18
f 10/16/19 36/52/19 42/63/19
f 11/17/20 37/53/20 39/56/20
f 39/56/21 42/62/21 12/18/21
f 39/56/22 37/53/22 42/62/22
f 37/53/23 10/16/23 42/62/23
f 42/63/24 41/60/24 12/19/24
f 42/63/25 36/52/25 41/60/25
f 36/52/26 9/15/26 41/60/26
f 41/61/27 40/58/27 12/20/27
f 41/61/28 35/51/28 40/58/28
f 35/51/29 8/14/29 40/58/29
f 40/59/30 38/54/30 12/21/30
f 40/59/31 34/50/31 38/54/31
f 34/50/32 7/12/32 38/54/32
f 38/55/33 39/57/33 12/22/33
f 38/55/34 33/49/34 39/57/34
f 33/49/35 11/17/35 39/57/35
f 24/39/36 37/53/36 11/17/36
f 24/39/37 31/47/37 37/53/37
f 31/47/38 10/16/38 37/53/38
f 32/48/39 36/52/39 10/16/39
f 32/48/40 29/45/40 36/52/40
f 29/45/41 9/15/41 36/52/41
f 30/46/42 35/51/42 9/15/42
f 30/46/43 27/42/43 35/51/43
f 27/42/44 8/14/44 35/51/44
f 28/43/45 34/50/45 8/13/45
f 28/43/46 25/40/46 34/50/46
f 25/40/47 7/12/47 34/50/47
f 26/41/48 33/49/48 7/12/48
f 26/41/49 23/38/49 33/49/49
f 23/38/50 11/17/50 33/49/50
f 31/47/51 32/48/51 10/16/51
f 31/47/52 22/37/52 32/48/52
f 22/37/53 5/10/53 32/48/53
f 29/45/54 30/46/54 9/15/54
f 29/45/55 21/36/55 30/46/55
f 21/36/56 4/9/56 30/46/56
f 27/42/57 28/44/57 8/14/57
f 27/42/58 19/33/58 28/44/58
f 19/33/59 3/7/59 28/44/59
f 25/40/60 26/41/60 7/12/60
f 25/40/61 15/27/61 26/41/61
f 15/27/62 2/6/62 26/41/62
f 23/38/63 24/39/63 11/17/63
f 23/38/64 16/28/64 24/39/64
f 16/28/65 6/11/65 24/39/65
f 17/29/66 22/37/66 6/11/66
f 17/29/67 20/34/67 22/37/67
f 20/34/68 5/10/68 22/37/68
f 20/35/69 21/36/69 5/10/69
f 20/35/70 18/31/70 21/36/70
f 18/31/71 4/9/71 21/36/71
f 18/32/72 19/33/72 4/9/72
f 18/32/73 13/23/73 19/33/73
f 13/23/74 3/7/74 19/33/74
f 16/28/75 17/30/75 6/11/75
f 16/28/76 14/25/76 17/30/76
f 14/25/77 1/5/77 17/30/77
f 13/24/78 15/27/78 3/8/78
f 13/24/79 14/26/79 15/27/79
f 14/26/80 2/6/80 15/27/80
f 129/203/81 130/204/81 121/188/81 137/214/81
f 69/105/82 77/114/82 72/109/82 46/72/82
f 43/64/83 55/87/83 60/95/83
f 43/65/84 60/94/84 62/98/84
f 43/66/85 62/97/85 59/92/85
f 74/111/86 78/115/86 84/126/86 52/79/86
f 46/72/87 61/96/87 69/105/87
f 58/91/88 59/93/88 48/74/88 66/102/88
f 48/74/89 64/100/89 73/110/89
f 73/110/90 64/100/90 74/111/90 52/79/90
f 65/101/91 58/91/91 66/102/91 53/80/91
f 67/103/92 57/90/92 68/104/92 49/75/92
f 48/74/93 73/110/93 66/102/93
f 49/75/94 75/112/94 80/118/94
f 50/76/95 76/113/95 82/121/95
f 122/189/96 118/184/96 127/199/96 117/179/96 128/202/96
f 53/80/97 79/116/97 81/119/97
f 81/119/98 84/125/98 54/81/98
f 81/119/99 79/116/99 84/125/99
f 79/116/100 52/79/100 84/125/100
f 56/89/101 57/90/101 55/86/101 43/67/101
f 101/157/102 95/148/102 102/158/102 91/138/102
f 83/124/103 82/122/103 54/82/103
f 58/91/104 65/101/104 44/69/104 56/88/104 59/93/104
f 82/121/105 80/117/105 54/83/105
f 82/121/106 76/113/106 80/117/106
f 76/113/107 49/75/107 80/117/107
f 80/118/108 81/120/108 54/84/108
f 80/118/109 75/112/109 81/120/109
f 75/112/110 53/80/110 81/120/110
f 66/102/111 79/116/111 53/80/111
f 66/102/112 73/110/112 79/116/112
f 73/110/113 52/79/113 79/116/113
f 70/107/114 76/113/114 50/76/114
f 67/103/115 49/75/115 76/113/115
f 63/99/116 72/109/116 51/78/116 71/108/116 47/73/116
f 65/101/117 53/80/117 75/112/117
f 97/152/118 98/153/118 104/160/118 87/133/118
f 64/100/119 47/73/119 74/111/119
f 55/86/120 57/90/120 67/103/120 45/71/120
f 63/99/121 46/72/121 72/109/121
f 69/105/122 70/106/122 50/77/122
f 69/105/123 61/96/123 70/106/123
f 61/96/124 45/70/124 70/106/124
f 71/108/125 51/78/125 83/123/125 78/115/125
f 99/155/126 106/163/126 116/178/126 108/165/126
f 69/105/127 50/77/127 82/122/127 77/114/127
f 59/92/128 64/100/128 48/74/128
f 59/92/129 62/97/129 64/100/129
f 62/97/130 47/73/130 64/100/130
f 62/98/131 63/99/131 47/73/131
f 62/98/132 60/94/132 63/99/132
f 60/94/133 46/72/133 63/99/133
f 60/95/134 61/96/134 46/72/134
f 60/95/135 55/87/135 61/96/135
f 55/87/136 45/70/136 61/96/136
f 150/232/137 124/192/137 120/187/137 149/231/137 126/194/137
f 56/88/138 43/68/138 59/93/138
f 85/127/139 94/146/139 93/144/139
f 107/164/140 110/167/140 115/175/140 90/137/140
f 85/128/141 93/145/141 97/152/141
f 85/129/142 97/151/142 99/154/142
f 85/130/143 99/155/143 96/150/143
f 84/126/144 78/115/144 83/123/144 54/85/144
f 102/158/145 111/168/145 113/171/145 91/138/145
f 129/203/146 136/213/146 128/201/146
f 106/163/147 100/156/147 107/164/147 90/137/147
f 101/157/148 109/166/148 103/159/148 86/132/148
f 99/154/149 100/156/149 106/163/149
f 118/184/150 122/189/150 146/224/150 143/221/150 139/217/150
f 72/109/151 77/114/151 82/122/151 83/124/151 51/78/151
f 113/171/152 116/177/152 92/139/152
f 113/171/153 111/168/153 116/177/153
f 136/213/154 129/203/154 137/214/154 125/193/154
f 116/178/155 115/176/155 92/140/155
f 94/146/156 86/132/156 103/159/156 93/144/156
f 71/108/157 78/115/157 74/111/157 47/73/157
f 115/175/158 114/173/158 92/141/158
f 115/175/159 110/167/159 114/173/159
f 114/174/160 112/169/160 92/142/160
f 133/209/161 120/187/161 124/192/161 141/219/161 135/212/161
f 112/170/162 113/172/162 92/143/162
f 112/170/163 109/166/163 113/172/163
f 109/166/164 91/138/164 113/172/164
f 101/157/165 91/138/165 109/166/165
f 138/215/166 132/208/166 139/216/166 123/191/166
f 100/156/167 87/133/167 107/164/167
f 108/165/168 111/168/168 102/158/168 88/134/168
f 108/165/169 116/177/169 111/168/169
f 103/159/170 112/169/170 105/161/170 93/144/170
f 104/160/171 110/167/171 107/164/171 87/133/171
f 104/160/172 89/136/172 114/173/172 110/167/172
f 105/161/173 112/169/173 114/174/173 89/135/173
f 99/154/174 97/151/174 100/156/174
f 97/151/175 87/133/175 100/156/175
f 97/152/176 93/145/176 98/153/176
f 95/148/177 94/147/177 96/149/177
f 94/147/178 85/131/178 96/149/178
f 149/230/179 144/222/179 148/229/179 126/195/179
f 140/218/180 144/222/180 149/230/180
f 117/180/181 127/200/181 131/207/181
f 117/181/182 131/206/182 133/210/182
f 117/182/183 133/209/183 130/205/183
f 137/214/184 145/223/184 147/226/184 125/193/184
f 121/188/185 135/212/185 141/219/185
f 104/160/186 98/153/186 105/162/186 89/136/186
f 127/200/187 118/185/187 139/216/187 132/208/187
f 103/159/188 109/166/188 112/170/188
f 95/148/189 96/149/189 88/134/189 102/158/189
f 136/213/190 125/193/190 147/227/190 142/220/190
f 108/165/191 88/134/191 96/150/191 99/155/191
f 123/190/192 143/221/192 148/228/192
f 93/145/193 105/162/193 98/153/193
f 95/148/194 101/157/194 86/132/194 94/147/194
f 147/226/195 150/233/195 126/196/195
f 147/226/196 145/223/196 150/233/196
f 65/101/197 75/112/197 49/75/197 68/104/197 44/69/197
f 131/207/198 132/208/198 138/215/198 119/186/198
f 128/201/199 117/183/199 130/204/199 129/203/199
f 148/228/200 146/224/200 126/197/200
f 148/228/201 143/221/201 146/224/201
f 56/89/202 44/69/202 68/104/202 57/90/202
f 146/225/203 147/227/203 126/198/203
f 146/225/204 142/220/204 147/227/204
f 131/206/205 119/186/205 140/218/205 134/211/205
f 139/217/206 143/221/206 123/190/206
f 128/202/207 136/213/207 142/220/207 146/225/207 122/189/207
f 106/163/208 90/137/208 115/176/208 116/178/208
f 141/219/209 145/223/209 137/214/209 121/188/209
f 141/219/210 124/192/210 150/233/210 145/223/210
f 140/218/211 149/231/211 120/187/211 133/210/211 134/211/211
f 138/215/212 144/222/212 140/218/212 119/186/212
f 138/215/213 123/191/213 148/229/213 144/222/213
f 130/205/214 135/212/214 121/188/214
f 130/205/215 133/209/215 135/212/215
f 133/210/216 131/206/216 134/211/216
f 131/207/217 127/200/217 132/208/217
f 67/103/218 76/113/218 70/107/218 45/71/218
