# Blender 3.5.1
# www.blender.org
mtllib krzok maly.mtl
o Icosphere.064
v 0.539260 -0.005958 0.297429
v -0.102106 0.186203 -0.456600
v 0.459279 0.058569 -0.237814
v -0.526758 0.668361 -0.210775
v 0.777002 0.433281 0.015235
v 0.555396 -0.037606 0.021116
v -0.341760 0.052387 -0.336886
v 0.158272 0.120545 -0.380433
v 0.774870 0.200757 0.228217
v 0.696835 0.195748 -0.130910
v 0.425692 0.231084 0.420758
v -0.841383 0.286132 0.216537
v -0.542057 0.236093 0.364742
v -0.807844 0.241191 -0.073633
v 0.381646 0.330678 -0.364693
v 0.004588 0.436969 -0.451772
v 0.697298 0.601421 0.303630
v -0.080273 0.625157 0.387904
v 0.522654 0.598165 -0.230231
v 0.573814 0.832356 0.060274
v -0.144531 0.961879 0.185795
v 0.160602 0.938656 -0.179608
v 0.440284 -0.056878 0.222977
v 0.576205 -0.043895 0.180109
v -0.199397 0.125294 -0.429289
v 0.669691 0.069472 0.286886
v 0.761347 0.303899 -0.062015
v 0.342191 0.383230 0.435189
v -0.803646 0.116482 0.102426
v -0.206027 0.276913 -0.457294
v -0.701144 0.468231 -0.147782
v 0.088368 0.572329 -0.419242
v -0.235277 0.642454 0.348249
v 0.008700 0.737226 -0.365672
v 0.681417 0.502910 -0.115827
v 0.316089 0.976700 0.063988
v -0.368930 0.831524 -0.157592
v 0.162447 0.817678 -0.293529
v 0.162634 -0.075991 0.032769
v 0.518031 -0.002504 -0.125448
v -0.493508 -0.050433 -0.070772
v -0.502682 -0.005897 -0.190791
v 0.015164 0.157054 -0.434021
v 0.816221 0.315932 0.119960
v 0.585833 0.104974 -0.195772
v 0.502372 0.092152 0.376920
v -0.440201 0.127095 0.341420
v -0.490424 0.533775 -0.309170
v -0.758632 0.078922 -0.049916
v -0.059046 0.298181 -0.467753
v 0.795257 0.520520 0.162286
v 0.088333 0.585698 0.413410
v -0.362420 0.728217 -0.290388
v 0.337655 0.658214 -0.317212
v 0.724238 0.626007 0.032569
v -0.041750 1.039557 0.122219
v -0.046506 1.036798 -0.006195
v 0.131062 1.021519 -0.051834
v 0.383868 0.913312 -0.066409
v 0.577516 0.727109 -0.094926
v -0.291942 0.893424 0.116685
v -0.001447 0.955733 0.238185
v 0.470282 0.771820 0.298507
v 0.681722 0.735342 0.189472
v 0.561574 0.261181 -0.265418
v -0.724816 0.486196 0.004478
v -0.877676 0.253198 0.085657
v -0.700683 0.511546 0.145590
v -0.304292 0.417912 0.391995
v 0.592143 0.416306 0.388081
v 0.779190 0.396927 0.283246
v 0.191088 0.389508 -0.423673
v 0.268184 0.213055 -0.386529
v -0.610064 0.302338 -0.253007
v -0.599997 0.112170 -0.220149
v -0.742685 0.260541 0.313702
v -0.795391 0.162255 0.239732
v -0.661651 0.147890 0.316107
v 0.772916 0.175887 0.048082
v 0.443709 -0.076534 0.078173
v 0.492973 -0.074365 0.162977
v 0.661236 0.019168 0.205329
v -0.767764 0.105261 0.153178
v -0.248756 0.198276 -0.437948
v 0.615047 0.118183 0.352049
v -0.844983 0.133453 0.053202
v -0.145364 0.340490 -0.466975
v 0.540690 0.174125 -0.261894
v -0.409072 0.825512 -0.091365
v 0.046225 0.823475 -0.313334
v 0.672229 0.619170 -0.065130
v 0.285780 0.983926 -0.017797
v 0.450433 0.822472 -0.126241
v 0.285393 0.768929 -0.279870
v 0.013689 1.026591 -0.067763
v -0.070938 0.921072 -0.210353
v -0.314590 0.820379 -0.225528
v -0.088836 1.036581 0.058776
v -0.257860 0.938038 0.051342
v 0.018194 1.015392 0.177971
v -0.020892 0.867163 0.298361
v 0.112366 0.704562 0.381632
v 0.537657 0.813020 0.229469
v 0.757404 0.631416 0.130871
v 0.699889 0.389760 -0.137342
v 0.563228 0.367860 -0.266214
v 0.367447 0.547754 -0.345696
v -0.003828 0.644390 -0.406878
v -0.176243 0.545804 -0.426431
v -0.377416 0.624068 -0.342940
v -0.671986 0.556542 -0.076251
v -0.794429 0.414923 0.086189
v 0.685487 0.349537 0.352415
v 0.816974 0.410866 0.193744
v 0.188377 0.494493 -0.415973
v -0.628322 0.426714 -0.237265
v -0.534662 0.197944 -0.289487
v -0.627346 0.047129 -0.159358
v -0.640888 0.377098 0.316354
v -0.766034 0.186531 0.300762
v -0.544716 0.114460 0.317761
v 0.798997 0.253411 0.035545
v 0.716863 0.092363 0.045242
v 0.593217 0.041766 -0.126725
v 0.000367 0.113158 -0.407411
v -0.149261 0.090564 -0.406623
v -0.431841 -0.044671 -0.176892
v 0.215980 -0.062279 -0.028696
vn -0.4605 0.8614 -0.2141
vn 0.2076 -0.8989 0.3859
vn 0.0619 0.7709 -0.6340
vn 0.3141 -0.9434 -0.1062
vn -0.3257 0.8418 -0.4304
vn 0.4723 -0.7786 0.4131
vn 0.5870 0.2481 -0.7706
vn 0.7517 -0.5102 -0.4180
vn -0.4899 0.8255 0.2803
vn -0.8825 -0.4277 0.1956
vn 0.1108 -0.8064 -0.5809
vn 0.0584 -0.4963 -0.8662
vn -0.3659 0.5091 0.7791
vn -0.0634 -0.0947 0.9935
vn 0.3390 -0.5445 0.7672
vn -0.1404 0.3560 0.9239
vn -0.8281 -0.4003 0.3924
vn -0.8602 -0.2358 -0.4522
vn 0.6442 -0.2258 -0.7307
vn -0.1878 0.5965 -0.7803
vn -0.4320 -0.3213 -0.8427
vn 0.6948 0.6265 -0.3533
vn -0.4330 -0.8964 0.0953
vn 0.1575 0.2887 0.9444
vn -0.1331 -0.9037 0.4070
vn 0.6650 0.3687 -0.6494
vn 0.4005 0.0812 -0.9127
vn 0.4932 0.8552 -0.1594
vn 0.3222 0.8172 -0.4779
vn -0.7098 0.6510 -0.2691
vn 0.4006 -0.1826 -0.8979
vn -0.5322 0.5743 0.6220
vn -0.3452 0.1331 -0.9290
vn -0.5139 0.6647 -0.5423
vn -0.6960 0.7117 0.0949
vn -0.2179 0.7534 0.6203
vn 0.3752 0.6675 -0.6432
vn 0.5110 0.4887 -0.7071
vn 0.8339 -0.5425 0.1011
vn 0.4505 0.5783 0.6802
vn 0.2201 0.3976 -0.8908
vn 0.9202 0.2611 -0.2915
vn 0.1299 0.4311 0.8929
vn 0.8445 0.2425 -0.4775
vn 0.7090 -0.0295 -0.7046
vn 0.3377 -0.4260 -0.8393
vn 0.2677 0.3068 -0.9133
vn 0.6104 -0.7693 -0.1885
vn 0.9631 0.1138 -0.2439
vn -0.9029 0.3874 -0.1861
vn -0.8289 0.4120 -0.3783
vn -0.8283 0.5180 0.2134
vn -0.1242 -0.7897 -0.6009
vn -0.0787 0.0571 0.9953
vn 0.0438 0.1680 -0.9848
vn -0.4560 0.0137 -0.8899
vn 0.4951 0.1428 0.8570
vn 0.9476 -0.1430 0.2858
vn 0.8514 0.3505 0.3902
vn 0.2084 -0.1886 -0.9597
vn -0.1790 0.4532 -0.8732
vn -0.5920 0.3763 -0.7127
vn -0.7057 0.0603 -0.7059
vn -0.6274 -0.1647 -0.7611
vn -0.4374 -0.5394 -0.7195
vn -0.6625 -0.3162 -0.6791
vn 0.0603 -0.9288 -0.3656
vn -0.7763 -0.0563 0.6279
vn -0.2402 -0.1523 0.9587
vn -0.0526 -0.6405 0.7661
vn 0.9498 -0.3111 0.0339
vn 0.8573 -0.2890 -0.4261
vn 0.2147 -0.0645 -0.9745
vn -0.0983 -0.1338 -0.9861
vn 0.4238 -0.6678 -0.6120
vn -0.0612 -0.3021 0.9513
vn 0.2565 -0.0730 0.9638
vn -0.0255 -0.9989 0.0384
vn -0.2321 0.2186 0.9478
vn 0.3634 0.8737 0.3235
vn -0.4338 -0.8559 -0.2816
vn 0.1974 0.7040 0.6822
vn 0.6593 -0.2095 0.7221
vn 0.1454 0.9890 0.0276
vt 0.272728 0.157461
vt 0.636364 0.157461
vt 0.454546 0.157461
vt 0.727273 0.314921
vt 0.363637 0.314921
vt 0.363637 0.157461
vt 0.727273 0.157461
vt 0.545455 0.157461
vt 0.318183 0.236191
vt 0.409092 0.236191
vt 0.227274 0.236191
vt 0.863637 0.236191
vt 0.954545 0.236191
vt 0.045455 0.236191
vt 0.772728 0.236191
vt 0.500001 0.236191
vt 0.590910 0.236191
vt 0.272728 0.314921
vt 0.090910 0.314921
vt 0.454546 0.314921
vt 0.409092 0.393651
vt 0.318182 0.393651
vt 0.863636 0.393651
vt 0.045455 0.393651
vt 0.590909 0.393651
vt 0.500000 0.393651
vt 0.250001 0.118096
vt 0.295455 0.118096
vt 0.318182 0.157461
vt 0.681819 0.157461
vt 0.295455 0.196826
vt 0.386364 0.275556
vt 0.204546 0.275556
vt 0.840909 0.196826
vt 0.659091 0.196826
vt 0.750000 0.275556
vt 0.568182 0.275556
vt 0.045455 0.314921
vt 0.590910 0.314921
vt 0.409092 0.314921
vt 0.295455 0.433017
vt 0.431819 0.433017
vt 0.750000 0.354286
vt 0.704546 0.354286
vt 0.568182 0.354286
vt 0.522728 0.354286
vt 0.204546 0.039365
vt 0.340910 0.039365
vt 0.409092 0.157461
vt 0.840909 0.118096
vt 0.795455 0.118096
vt 0.772728 0.157461
vt 0.590910 0.157461
vt 0.340910 0.275556
vt 0.431819 0.196826
vt 0.250001 0.196826
vt 0.977273 0.196826
vt 0.068183 0.196826
vt 0.704546 0.275556
vt 0.795455 0.196826
vt 0.613637 0.196826
vt 0.318182 0.314921
vt 0.136364 0.314921
vt 0.681819 0.314921
vt 0.500001 0.314921
vt 0.340910 0.354286
vt 0.386364 0.354286
vt 0.068183 0.433017
vt 0.840909 0.433017
vt 0.659091 0.433017
vt 0.795455 0.433017
vt 0.477273 0.433017
vt 0.613637 0.433017
vt 0.454546 0.393652
vt 0.431819 0.354286
vt 0.840909 0.354286
vt 0.090910 0.393652
vt 0.250001 0.354286
vt 0.295455 0.354286
vt 0.454546 0.236191
vt 0.795455 0.275556
vt 0.818182 0.236191
vt 0.840909 0.275556
vt 0.068182 0.275556
vt 0.250001 0.275556
vt 0.295455 0.275556
vt 0.545455 0.236191
vt 0.522728 0.196826
vt 0.727273 0.236191
vt 0.750000 0.196826
vt 0.909091 0.236191
vt 0.886364 0.196826
vt 0.931818 0.196826
vt 0.363637 0.236191
vt 0.340910 0.118096
vt 0.318182 0.131218
vt 0.318182 0.183704
vt 0.863636 0.183704
vt 0.681818 0.183704
vt 0.272728 0.209948
vt 0.818182 0.209948
vt 0.636364 0.209948
vt 0.454546 0.209948
vt 0.772727 0.341165
vt 0.590909 0.341165
vt 0.409092 0.341165
vt 0.454546 0.419895
vt 0.454546 0.367408
vt 0.500000 0.341165
vt 0.636364 0.419895
vt 0.636364 0.367408
vt 0.681818 0.341165
vt 0.818182 0.419895
vt 0.818182 0.367408
vt 0.090910 0.419895
vt 0.090910 0.367408
vt 0.136364 0.341165
vt 0.272728 0.367408
vt 0.318182 0.341165
vt 0.409092 0.288678
vt 0.454546 0.262434
vt 0.500000 0.288678
vt 0.590910 0.288678
vt 0.636364 0.262434
vt 0.681819 0.288678
vt 0.772728 0.288678
vt 0.818182 0.262434
vt 0.272728 0.262434
vt 0.318183 0.288678
vt 0.545455 0.262434
vt 0.727273 0.262434
vt 0.727273 0.209948
vt 0.772727 0.183704
vt 0.909091 0.262434
vt 0.909091 0.209948
vt 0.954545 0.183704
vt 0.363637 0.262434
vt 0.363637 0.209948
vt 0.409092 0.183704
vt 0.590910 0.131218
vt 0.681819 0.131218
vt 0.772727 0.131218
vt 0.363637 0.052487
s 0
usemtl Material.001
f 89/104/1 99/114/1 98/113/1 57/71/1 37/43/1
f 1/1/2 23/28/2 81/96/2 24/29/2
f 90/105/3 96/111/3 95/110/3 58/73/3 22/25/3 38/45/3
f 6/6/4 24/29/4 81/96/4 80/95/4
f 96/111/5 97/112/5 37/44/5 57/70/5 95/110/5
f 1/1/6 24/29/6 82/97/6 26/31/6
f 105/120/7 106/121/7 107/122/7 54/65/7 19/20/7 35/40/7
f 123/138/8 124/139/8 45/55/8 10/10/8 79/94/8
f 98/113/9 99/114/9 61/76/9 21/23/9 56/69/9
f 12/12/10 29/34/10 83/98/10 77/92/10
f 3/3/11 40/49/11 125/140/11 43/53/11 8/8/11
f 125/140/12 126/141/12 25/30/12 2/2/12 43/53/12
f 33/38/13 101/116/13 62/77/13 21/24/13 119/134/13
f 13/14/14 11/11/14 28/33/14 69/84/14
f 1/1/15 26/31/15 85/100/15 46/56/15
f 101/116/16 33/38/16 18/19/16 52/63/16 102/117/16
f 12/12/17 67/82/17 86/101/17 29/34/17
f 14/15/18 49/60/18 86/101/18 67/82/18
f 10/10/19 45/55/19 88/103/19 65/80/19
f 34/39/20 53/64/20 97/112/20 96/111/20 90/105/20
f 7/7/21 75/90/21 117/132/21 84/99/21 25/30/21
f 60/75/22 93/108/22 59/74/22 20/22/22 64/79/22 104/119/22 55/67/22 91/106/22
f 29/34/23 86/101/23 49/60/23 41/50/23 83/98/23
f 17/18/24 102/117/24 52/63/24 28/33/24 70/85/24
f 23/27/25 1/1/25 47/57/25 121/136/25 78/93/25 120/135/25 77/92/25 83/98/25 41/50/25 39/47/25
f 19/20/26 60/75/26 91/106/26 35/40/26
f 15/16/27 72/87/27 115/130/27 107/122/27 106/121/27 65/80/27
f 20/21/28 59/74/28 92/107/28 36/42/28
f 22/26/29 58/72/29 92/107/29 59/74/29
f 4/4/30 31/36/30 111/126/30 89/104/30 37/43/30
f 15/16/31 65/80/31 88/103/31 73/88/31
f 61/76/32 68/83/32 12/12/32 76/91/32 119/134/32 21/23/32
f 109/124/33 87/102/33 30/35/33 48/59/33 110/125/33
f 4/4/34 37/44/34 97/112/34 53/64/34
f 66/81/35 112/127/35 68/83/35 61/76/35 99/114/35 89/104/35 111/126/35
f 21/24/36 62/77/36 100/115/36 56/68/36
f 93/108/37 94/109/37 38/46/37 22/26/37 59/74/37
f 19/20/38 54/65/38 94/109/38 93/108/38 60/75/38
f 82/97/39 123/138/39 79/94/39 9/9/39 26/31/39
f 17/18/40 64/79/40 103/118/40 63/78/40
f 38/46/41 94/109/41 54/65/41 32/37/41 108/123/41 34/39/41 90/105/41
f 5/5/42 55/66/42 104/119/42 51/62/42
f 101/116/43 102/117/43 17/18/43 63/78/43 62/77/43
f 5/5/44 27/32/44 105/120/44 35/40/44 91/106/44 55/67/44
f 10/10/45 65/80/45 106/121/45 105/120/45 27/32/45
f 73/88/46 88/103/46 45/55/46 3/3/46 8/8/46
f 107/122/47 115/130/47 32/37/47 54/65/47
f 123/138/48 82/97/48 24/29/48 6/6/48 40/49/48 124/139/48
f 44/54/49 122/137/49 27/32/49 5/5/49 51/62/49 114/129/49
f 14/15/50 66/81/50 111/126/50 31/36/50
f 14/15/51 67/82/51 112/127/51 66/81/51
f 12/12/52 68/83/52 112/127/52 67/82/52
f 126/141/53 127/142/53 42/52/53 7/7/53 25/30/53
f 69/84/54 28/33/54 52/63/54 18/19/54
f 87/102/55 109/124/55 108/123/55 32/37/55 115/130/55 72/87/55 16/17/55 50/61/55
f 84/99/56 117/132/56 74/89/56 116/131/56 48/59/56 30/35/56
f 17/18/57 70/85/57 113/128/57 71/86/57
f 9/9/58 44/54/58 114/129/58 71/86/58
f 17/18/59 71/86/59 114/129/59 51/62/59 104/119/59 64/79/59
f 8/8/60 43/53/60 2/2/60 50/61/60 73/88/60
f 108/123/61 109/124/61 110/125/61 53/64/61 34/39/61
f 48/59/62 116/131/62 31/36/62 4/4/62 53/64/62 110/125/62
f 14/15/63 31/36/63 116/131/63 74/89/63
f 14/15/64 74/89/64 117/132/64 75/90/64
f 7/7/65 42/52/65 118/133/65 75/90/65
f 14/15/66 75/90/66 118/133/66 49/60/66
f 40/49/67 6/6/67 80/95/67 128/143/67 39/48/67 41/51/67 127/142/67 126/141/67 125/140/67
f 12/12/68 77/92/68 120/135/68 76/91/68
f 13/13/69 76/91/69 120/135/69 78/93/69
f 46/56/70 47/58/70 1/1/70
f 9/9/71 79/94/71 122/137/71 44/54/71
f 10/10/72 27/32/72 122/137/72 79/94/72
f 73/88/73 50/61/73 16/17/73 72/87/73 15/16/73
f 30/35/74 87/102/74 50/61/74 2/2/74 25/30/74 84/99/74
f 3/3/75 45/55/75 124/139/75 40/49/75
f 46/56/76 11/11/76 13/13/76 78/93/76 121/136/76 47/58/76
f 85/100/77 113/128/77 70/85/77 28/33/77 11/11/77 46/56/77
f 23/28/78 39/48/78 128/143/78 80/95/78 81/96/78
f 33/38/79 119/134/79 76/91/79 13/14/79 69/84/79 18/19/79
f 100/115/80 103/118/80 64/79/80 20/22/80 36/41/80 56/68/80
f 42/52/81 127/142/81 41/51/81 49/60/81 118/133/81
f 62/77/82 63/78/82 103/118/82 100/115/82
f 9/9/83 71/86/83 113/128/83 85/100/83 26/31/83
f 57/71/84 98/113/84 56/69/84 36/42/84 92/107/84 58/73/84 95/110/84
